<?xml version="1.0" encoding="utf-8"?>
<!-- Generator: Adobe Illustrator 25.0.0, SVG Export Plug-In . SVG Version: 6.00 Build 0)  -->
<svg version="1.1" id="Layer_1" xmlns="http://www.w3.org/2000/svg" xmlns:xlink="http://www.w3.org/1999/xlink" x="0px" y="0px"
	 viewBox="0 0 1024 469" style="enable-background:new 0 0 1024 469;" xml:space="preserve">
<style type="text/css">
	.st0{fill:#BE824F;}
	.st1{fill:#DB955A;}
	.st2{fill:#2B2C2B;}
	.st3{fill:#944D21;}
	.st4{fill:#A7A9AC;}
	.st5{fill:#939598;}
	.st6{opacity:0.3;fill:#A7A9AC;enable-background:new    ;}
	.st7{fill:#CFCECE;}
	.st8{opacity:0.3;}
	.st9{fill:#352514;}
</style>
<g>
	<g id="Layer_1_1_">
		<path class="st0" d="M46.27,122.83c5.33,7.51-3.11,14.2-0.9,18.77c1.33,2.74,3.47,1.41,3.53,3.29c0.07,1.87-4.78,1.64-5.19,0.76
			c-1.27-2.53-3.78-5.75-3.88-7.23c-0.1-1.48,2.24-4.06-0.54-7.96C35.34,124.89,44.35,120.1,46.27,122.83z"/>
		<path class="st0" d="M76.19,134.34c0,0.41,0,0.71,0.38,0.84c1.48,0.72,5.95,2.42,8.71,3.65c3.55,1.64,4.21,0.3,6.85,1.07
			c1.64,0.46,3.47,1.91,2.33,2.63c-1.35,0.47-2.79,0.64-4.21,0.48c-1.78-0.13-8.22-1.5-8.22-1.5s-8.22-0.66-12.38-0.66
			c-1.87,0-3.29-2.74-4.29-3.85L76.19,134.34z"/>
		<path class="st1" d="M92.29,145.55c-2.63-0.82-3.29,0.43-6.82-1.22c-2.73-1.3-7.17-3.11-8.63-3.85c-0.28-0.35-0.5-0.75-0.66-1.17
			c6.13-4.11,5.72-10.83,6.25-13.82c0.53-2.99,4.72-3.29,8.3-4.24c2.17-0.56,3.09-1.28,2.88-3.07c0-0.53-1.94,0.56-4.13,0.54
			c-0.66,0,0.99-0.33,2.12-0.61c0.96-0.14,1.79-0.76,2.19-1.64c0.45-1.08,0.62-2.26,0.48-3.42c-0.23-0.43-1.64-0.38-2.94-0.28
			c-5.49,0.51-3.88-1.07-6.8-2.05c-0.21,0-5.33-1.64-7.97,0.77c-1.62,2.22-3.09,4.53-4.42,6.94c-3.07,1.62-6.63,2.04-9.99,1.17
			c-3.01-0.76-8.04-5.72-15.02-8.97c-3.49-1.56-7.52-1.23-10.72,0.85c-4.59-3.29-6.31-9.31-4.16-14.53c0.54-1.4-4.37-0.66-4.42,6.72
			c0,2.74,2.97,8.43,6.08,9.86c1.12,0.53-3.75,9.11,1.3,18.57c2.25,4.22,0.74,7.25,0.84,8.73c0.66,2.51,1.66,4.91,2.97,7.15
			c0.43,0.84,5.57,1.1,5.19-0.74c-0.38-1.84-2.2-0.51-3.52-3.29c-1.64-3.29,4.01-10.75,3.5-16.26c4.93,2.56,7.33,10.39,14.99,12.2
			c1.72,0.3,3.46,0.52,5.21,0.64c1.3,1.76,3.78,5.33,5.37,5.36c4.17,0.12,12.36,0.95,12.36,0.95s6.46,1.51,8.22,1.64
			c1.45,0.03,2.88-0.26,4.21-0.85C95.71,147.07,93.94,146.05,92.29,145.55z"/>
		<path class="st2" d="M84.96,115.16c0.02-0.4,0.12-0.8,0.28-1.17c0.16-0.26,0.4-0.47,0.67-0.61c0.23,0.11,0.43,0.27,0.59,0.46
			c0.12,0.23,0.2,0.25,0,0.51C86.2,114.86,84.96,115.16,84.96,115.16z"/>
		<path class="st2" d="M92.03,112.77c-0.25,0.26,0.13,1.07,0.49,1.43s1.74,0,1.91-0.28c0.16-0.28,0.12-1.22-0.3-1.36
			C93.43,112.39,92.69,112.46,92.03,112.77z"/>
		<path class="st0" d="M75.86,111.33c0.59-0.87,8.3-1.45,7.56-0.15c-2.35,4.14,0,6.89-2.42,7.53
			C77.68,119.54,74.71,112.97,75.86,111.33z"/>
		<path class="st3" d="M72.57,117.37c-0.76-1.05-1.97,1.45-1.97,1.45c1.81,2.04,3.92,3.79,6.26,5.19c1.89,1.03,3.88,1.85,5.95,2.45
			c0.61,0,0.23-1.64,0.23-1.64c-1.47-1.23-3.13-2.2-4.93-2.86C75.93,120.89,74.03,119.32,72.57,117.37z"/>
		<path class="st4" d="M131.74,149.74c-0.61-6.57,4.93-21.51,3.58-27.6c-0.56-2.55,8.22-7.25,7.45-8.92
			c-0.77-1.68-9.38-5.39-10.68-4.78c-0.74,0.35-5.37,7.18-5.47,10.16c-0.21,7.49,0.66,27.38,0.58,30.49
			C127.12,149.13,131.74,150.44,131.74,149.74z"/>
		<path class="st4" d="M138.92,120.43c-3.11-1.84-11.64-3.6-12.47-6.89c-0.2-0.71,13.59-23.22,15.42-25.11
			c3.44-3.57,18.65-0.56,16.44,2.97C157.63,92.62,141.47,119,138.92,120.43z"/>
		<path class="st4" d="M132.86,151.97c0.61-1.99-1.12-4.93-1.12-4.93c-0.03,1.03-0.89,1.83-1.91,1.8c-0.04,0-0.08,0-0.12-0.01
			c-1.45,0-2.42-0.3-2.28-0.53c0.56-0.99-0.3-1.64-0.61-1.35c-0.94,0.99-1.64,2.61-2.28,3.17c-1.07,0.9-4.6,0.48-4.42,1.82
			C120.33,153.73,132.41,153.4,132.86,151.97z"/>
		<path class="st4" d="M161.11,146.99c-2.74-3.67-1.94-14.79-2.37-19.97c-0.36-4.26-3.86-6.57-3.58-7.97c0-0.25,0.51-5.42,1.3-6.57
			l-10.08,1.64c-0.15,1.19-0.18,2.4-0.12,3.6c-0.67,4.82,11.03,27.94,9.35,31.23c-0.21,0.39,1.35,1.91,3.29,1.23
			C161.93,149,161.32,147.37,161.11,146.99z"/>
		<path class="st4" d="M157.45,116.16c0,0.46-12.69,4.67-13.97,3.29c-1.28-1.38-0.95-26.13-0.82-27.61
			c0.18-1.96,15.01-5.29,15.06-5.29C159.96,86.47,158.61,105.9,157.45,116.16z"/>
		<path class="st4" d="M162.2,149.69c0.76-1.46-1.46-3.6-1.46-3.6c-0.36,1.3-1.33,2.36-2.6,2.83c-1.23,0.33-0.3-1.64-2.05-1.64
			c-1.22,0-1.45,1.64-1.64,1.91c-0.69,1.18-3.12,2.74-3.29,3.96c0,0.77,3.37,1.08,4.36,0.69
			C158.01,152.96,160.3,151.54,162.2,149.69z"/>
		<path class="st4" d="M135.96,70.66l-10.7,1.64c0.81,5.26,2.1,10.35,1.89,11.21c-0.76,2.96-12.26,14.66-12.28,14.66
			c-0.72,0.1-1.43,0.25-2.14,0.43c-1.08,0.62-1.96,0.72-2.19,1.5c-0.23,0.77,1.38,0.18,1.41,0.25s-3.85,2.14-3.55,2.73
			c0.3,0.59,2.04,0.89,2.37,1.22c0.33,0.33,3.63-1.2,3.88-1.4c0.66-0.54,1.36-2.4,2.1-3.14c0,0,15.8-8.89,17.42-12.98
			C136.18,81.65,136.79,76.09,135.96,70.66z"/>
		<path class="st4" d="M134.9,63.12c-2.83-4.5-9.52-4.93-10.67,1.25c-0.38,3.43-0.29,6.9,0.28,10.31l12.95-2.12
			C137.07,69.3,136.2,66.12,134.9,63.12z"/>
		<path class="st5" d="M115.14,100.15c0.02,1.94-1.54,3.53-3.48,3.55c-1.94,0.02-3.53-1.54-3.55-3.48
			c-0.02-1.94,1.54-3.53,3.48-3.55c0.01,0,0.02,0,0.03,0c1.92-0.02,3.5,1.53,3.52,3.45C115.14,100.13,115.14,100.14,115.14,100.15z"
			/>
		<path class="st4" d="M126.6,61.03c-0.71-1.15-0.08-5.46-2.33-4.93c-1.04,0.21-4.14,2.42-5.36,1.97c-1.22-0.44,0.76-1.99-1.33-3.8
			c-0.64-0.53,0.33-0.51,1.45-1.36c0.49-0.37,0.87-0.87,1.1-1.45c-0.08,0-0.85,0.58-1.64,0.85c-0.79,0.28-1.64,0.38-1.64,0.26
			c0.17-0.62,0-1.29-0.44-1.76c0,0-2.33,0.46-2.19-0.92c0-0.51,1.73-2.35,1.64-3.07c0-1.15-2.1-3.29-1.08-6.02
			c0.69-1.92,4.14-5.49,9.68-5.6c4.27-0.1,6.06,2.24,7.56,5.39c1.97,4.19-1.97,8.5-1.43,10.35c0.72,1.46,5.33,2.01,5.85,2.33
			C137.89,54.14,128.09,60.21,126.6,61.03z"/>
		<path class="st5" d="M116.55,50.99c-0.3,0.33-0.3,1.13,0,1.12c1.84-0.12,4.7-1.64,4.93-1.53c0.23,0.12-0.26,1.64-1.79,2.74
			c-0.56,0.41-2.22,0.74-2.07,1.17c0.74,2.07,0,4.78,0.97,5.18s6.84-0.94,7-2.58c0.27-1.3,0.34-2.63,0.23-3.94
			c0-0.97-0.59-6.57-0.82-7.28c-0.13-0.43-1.53-1.28-1.54-1.64c-0.04,1.87-0.71,3.68-1.89,5.13C120,50.18,118.31,50.73,116.55,50.99
			z"/>
		<path class="st4" d="M133.05,41.28c0.74,4.09-1.45,7.91-1.5,10.49c0,0-4.08-2.15-4.01-2.99c0-1.15,1.64-3.04,0-3.85
			c-2.79-1.43-2.45,2.68-2.73,2.86c-0.28,0.18-2.17-6.46-3.29-6.57c-1.12-0.12-4.55,2.02-7.72,1.5c-0.97-0.16-2.42-7.63,13.66-8.46
			C132.87,35.19,133.1,41.28,133.05,41.28z"/>
		<path class="st5" d="M116.95,45.48c0.72-0.23,6.76-2.02,7.59-2.17c7.66-1.33,9.86,0.39,9.55-1.51c-3.01-7.23-4.93-9.24-10.83-8.86
			c0-1.31-2.09-0.97-1.99,0.21c-2.27,0.35-4.41,1.27-6.23,2.68c-1.23,1.71-1.93,3.76-1.99,5.87c-0.56,0.64-6.34,2.86-6.76,4.31
			C105.89,47.46,111.84,49.28,116.95,45.48z"/>
		<path class="st4" d="M160.67,92.77c1.45-2.14-3.68-17.64-8.02-25.43c-1.94-3.48-5.05-10.09-10.55-13.15
			c-2.89-1.51-6.13-2.22-9.38-2.04c-0.43,2.59-1.8,4.93-3.85,6.57c-0.72,0.79-1.93,0.87-2.74,0.18c-0.43-0.23-0.76,1.94-0.69,2.47
			c0.81,6.84,2.79,15.02,6.28,19.46c5.67,7.2,3.65,13.15,3.29,16.34C134.8,98.93,158.45,96.04,160.67,92.77z"/>
		<path class="st6" d="M136.56,60.9c1.15,8.37,5.46,10.35,6.76,12.39c1.3,2.04,1.64,13.53,1.64,13.53l1.84-12.39L136.56,60.9z"/>
		<path class="st7" d="M152.88,73.52c0.1-2.73-2.37-7.99-5.06-12.36l-6.92,6.67c1.84,2.16,3.49,4.47,4.93,6.9
			c0,0.12-1.27,11.6-1.53,19.21c0,0.84-1.94,2.6-2.2,3.4c-0.61,1.89-1.64,2.5-1.28,2.84c0.85,1.02,1.41,0,1.48-0.13
			c0.74-0.48,0.36,3.81,1.81,3.42c1.49-0.7,2.95-1.49,4.36-2.35c0.59-0.95-0.1-5.46-0.21-5.72C148.37,95,152.6,79.34,152.88,73.52z"
			/>
		<path class="st4" d="M142.55,54.51c-3.19-2.35-9.27,1.07-6.57,7.1c1.2,2.51,2.72,4.86,4.52,6.99l8.07-7.33
			C146.95,58.69,144.92,56.41,142.55,54.51z"/>
	</g>
</g>
<g>
	<g id="Layer_1_2_">
		<path class="st4" d="M950.11,57.23c0,5.28,1.02,13.54,0.73,16.98c-0.23,2.95-2.53,20.05-3.94,21.47c-0.09,0.09-3.09,4.91-3.2,6.17
			c-0.14,2.25,1.44,4.17,2.04,4.08c0.85-0.14-0.32-1.54-0.39-2.72s0.65-1.9,1.1-1.67c0.96,0.51-0.57,4,0.94,2.73
			c0.77-0.65,1.68-5.85,1.79-6.05c0.9-1.67,10-13.89,10.98-22.49c0.72-6.39,0.72-12.84,0-19.24
			C958.52,48.54,950.19,51.95,950.11,57.23z"/>
		<polygon class="st4" points="946.14,103.28 945.56,105.32 946.24,107.06 948.37,104.83 		"/>
		<path class="st5" d="M968.02,85.62c-1.54-1.17-13.15-0.17-13.89,2.33c-0.57,2.18,0.74,17.75,3.94,33.76
			c1.68,8.43,5.74,26.51,7.63,33.44l4.46-0.19c-0.2-1.4,0.37-9.9,0.14-19.42c-0.25-10.1-3.87-12.35-3.6-14.06
			C968.28,112.58,973.08,89.3,968.02,85.62z"/>
		<path class="st5" d="M959.96,158.16c0.11,1.16,10.68,0.14,10.93-0.26c0.27-1.37,0.08-2.78-0.54-4.03c-1.61,0.67-3.43,0.62-5-0.12
			C964.11,156.23,959.87,157,959.96,158.16z"/>
		<path class="st4" d="M969.04,85.92c-4.77,0.48-16.01-0.29-16.67,1.54c-1.16,3.23-1.28,21.61-1.08,31.65
			c0.23,12.03,2.1,34.06,2.16,38.7l3.83-0.26c0-2.52,3.33-11.52,4.8-22.72c1.23-9.51-0.94-10.91-0.9-12.09
			C961.95,104.12,974.08,94.25,969.04,85.92z"/>
		<path class="st4" d="M945.9,158.84c0.25,1.22,11.96,0.85,12.23,0.46c0.41-1.34,0.2-2.79-0.59-3.95c-1.41,0.59-3.02,0.45-4.31-0.39
			C951.87,157.44,945.63,157.62,945.9,158.84z"/>
		<path class="st4" d="M957.15,40.62c2.22-3.35,4.25-7.46,0.65-12.44c-5.02-6.98-13.99-3.09-16.5,0c-0.97,1.28-1.32,2.93-0.94,4.49
			c0.31,2.19,1.23,2.27,1.03,4.31c-0.2,2.04-1.24,2.02-0.96,2.64c0.28,0.62,1.64,0.65,1.76,0.68c0.51,0.1,0.84,0.6,0.74,1.11
			c-0.02,0.08-0.04,0.15-0.07,0.22c0,0.52,2.9-0.19,3.55-1.28c-0.52,1.36-3.09,2.47-2.5,2.69c1.87,0.66,1.03,2.78,1.99,3.09
			c0.96,0.31,3.43-1.73,4.09-1.2c0.66,0.52,1.19,4.63-0.17,7.86c1.84,0.85,11.81-6.04,10.59-6.3
			C958.54,45.99,956.02,42.24,957.15,40.62z"/>
		<path class="st4" d="M975.55,32.56c-2.28-1.64-2.92-3.83-3.81-6.33c-1.4-3.94-4.88-8.95-9.68-6.81c-2.14,0.71-3.69,2.58-3.98,4.82
			c-4.51-3.67-11.06-3.31-15.14,0.82c-1.7,1.07-4.82,5.46-2.98,6.36c1.84,0.9,3.09-0.39,5.77,1.54c5.73,4.04,5.79-2.44,7.72,0.26
			c1.93,2.7-0.52,2.99-0.59,4.42c-0.09,2.61,3.27,5.22,4.48,4.63c3.41-1.64,5.73-8.6,3.97-13.66c1.76-1.84,3.6,2.93,4.11,3.92
			c1.1,2.18,3.38,5.73,6.36,5.25c-0.73-1.2-1.22-2.53-1.44-3.92c1.7,1.95,6.17,2.96,8.35,1.22
			C980.04,33.94,976.63,33.34,975.55,32.56z"/>
		<path class="st4" d="M942.98,32.63c0,0,14.56-1.39,17.48-3.09c2.92-1.7-0.88-4.37-2.62-6.25c-1.74-1.88-5.39-4.45-13.89-1.1
			c-4.49,1.74-5.39,7.86-5.39,7.86s-6.99,0.88-6.55,3.64C932.45,36.45,942.98,32.63,942.98,32.63z"/>
		<path class="st4" d="M972.68,92.89c-0.69,2.53-20.7,3.58-22.94,0.2c2.05-10.11-4.49-24.59-4.77-27.79
			c-0.28-3.2,3.21-5.13,3.33-15.21c0-1.73,10.39-5.85,11.45-4.75c10.81,11.16,5.84,19.91,9.8,31.25
			C970.98,80.48,974.13,87.21,972.68,92.89z"/>
		<g class="st8">
			<path class="st4" d="M950,82.07l11.93-28.33c0,0,1.2,10.33-2.58,17.83C957.06,76.11,950,82.07,950,82.07z"/>
		</g>
		<path class="st4" d="M930.47,96.07c-0.43,0-2.87-0.76-2.41,0.42c0.28,0.65,4.29,0.97,5.2,1.1L930.47,96.07z"/>
		<path class="st4" d="M950.16,58.16c-1.88,6.31-2.93,13.54-4.8,16.19c-0.71,1.03-8.27,15.59-11.95,19.48
			c-0.54,0.35-1.13,0.62-1.74,0.8c-1.03-0.03-2.07-0.12-3.09-0.28c-0.97-0.15-3.54-1.39-3.81-0.66c-0.15,0.39,2.07,1.45,3.75,2.52
			c0.87,0.44,1.79,0.76,2.75,0.96c1.09,0.52,2.33,0.69,3.52,0.48c5.3-3.29,18.83-20.22,19.95-22.12c2.15-3.83,3.82-7.92,4.96-12.16
			L950.16,58.16z"/>
		<path class="st4" d="M961.61,52.46c-1.68-4.04-7.29-3.09-8.15-1.9c-1.84,2.7-3.31,5.64-4.37,8.74l11.66,4.8
			C961.77,60.3,963.08,55.92,961.61,52.46z"/>
		<path class="st0" d="M923.6,148.99c-2.21,0-16.8-2.38-18.52-5.05c-1.1-1.68-5.13,8.09-0.86,7.97c0.19,0,2.19,0,2.96,0
			c-0.34,0.28-0.65,0.65-0.97,0.9c2.47-0.22,4.92-0.58,7.35-1.07l-1.14,0.69c1.08-0.11,5.45-0.74,5.45-0.74
			c2.43,0.48,4.88,0.8,7.35,0.96C929.32,152.47,928.76,149.09,923.6,148.99z"/>
		<path class="st1" d="M928.08,154.43c-2.25-0.97-3.49,0.39-8.69-1.19c-1.2-0.37-7.63-2.78-9.26-3.5c-0.34-0.14,1.79-4.75,1.44-6.53
			l0,0c0.11,0.32,0.11,1.25,0.25,1.65c0.84-2.23,1.07-4.64,0.68-6.99c0.15,0,0.22,0.25,0.39,0.29c-0.05-2.07-0.5-4.12-1.33-6.02
			c1.14-3.64,5.06-3.55,8-5.14c2.15-1.16,2.93-2.16,2.22-4c-0.2-0.54-0.6,0.68-2.92,1.22c-0.68,0.17-0.49,0.19,0.63-0.4
			c1.47-0.77,2.02-1.34,2.24-2.13c0.13-1.45-0.08-2.91-0.6-4.26c-0.36-0.4-1.79,0-3.09,0.46c-5.7,1.98-4.01,0.11-7.36-0.17
			c-0.25,0-5.74,0.26-8.77,2.81c-2.37,2.38-4.26,5.2-5.54,8.31c0.25,0,0.96-0.62,1.22-0.62c-0.96,1.16-1.95,0.91-4.03,3.09
			c0.2,0,0.86-0.34,1.11-0.23c-0.14,0.15-8.74,5.26-12.03,5.67c-3.29,0.4-12.35,0-17.38,1.34c-5.49,1.37-9.52,6.04-10.07,11.67
			c-2.13,0.61-4.39,0.53-6.47-0.23c-0.89-0.25-1.67-0.8-2.22-1.54c-0.45-0.59-0.39,1.16-0.4,1.19c-0.29,0.4-1.82-1.31-2.15-2.33
			c-0.34-0.94-0.44-1.95-0.29-2.93c-1.5,1.3-2.4,3.17-2.49,5.16c-0.22-0.36-0.46-0.36-0.65-0.73c-0.29,4.15,3.32,5.42,6.65,5.5
			c-0.69,0-1.44,0.28-2.1,0.31c1.54,1.73,10.95,1.1,11.55,0.94c1.27,0.18,2.15,1.35,1.96,2.62c-0.03,0.21-0.09,0.41-0.17,0.61
			c-1.03,3.21,10.07,1.93,12.47,2.01c2.41,0.08,4.01-0.62,2.79-2.36c-1.22-1.74-5.57,0.19-7.43-1c5.6,0,11.55-2.93,12.12-2.72
			c1.1,0.43,3.64,2.72,12.55,2.28c2.16-0.11,4.15-0.12,5.97-0.14c0,0-0.88,0.36-1.11,0.6c1.84,0.54,3.72,0.93,5.62,1.16
			c-0.51,0.37-1.08,0.64-1.7,0.77c2.79,0.23,5.6-0.15,8.23-1.1c0,0-0.09,0.17,0,0.36c1.81-0.14,7.6-1.47,7.6-1.47
			s8.27,0.96,10.22,1.05C928.24,157.87,932.54,156.37,928.08,154.43z"/>
		<path class="st2" d="M911.95,121.93c0.12-0.43,0.27-0.85,0.46-1.25c0.14-0.26,0.32-0.5,0.52-0.71c0.25,0.12,0.48,0.29,0.66,0.49
			c0.14,0.25,0.22,0.28,0,0.54C913.28,121.54,911.95,121.93,911.95,121.93z"/>
		<path class="st2" d="M918.97,117.72c-0.19,0.34,0.43,1.1,0.91,1.39c0.48,0.29,1.54-0.66,1.65-0.97c0.11-0.31,0.08-1.14-0.39-1.19
			C920.36,116.94,919.59,117.22,918.97,117.72z"/>
		<path class="st0" d="M909.71,118.23c-1.42-0.77-8.54,1.84-8.94,2.92c0,0.19-0.97,4.06,0.23,5.42c0.05-0.17,0.11-0.33,0.19-0.48
			c0,0.09,1.4,4.52,3.5,4.63c-0.04-0.14-0.08-0.29-0.11-0.43c2.66,0.65,5.43-1,4.54-3.33C907.7,123.27,911.12,119,909.71,118.23z"/>
		<path class="st3" d="M894.77,130.04c-0.48,0.52,5.19,3.2,10,4.03c2.54,0.51,5.13,0.72,7.72,0.62c0,0,0-2.01-0.71-2.05
			c-3.17,0.37-6.38,0.13-9.45-0.73c-2.23-0.6-4.36-1.52-6.33-2.73C895.54,129.38,895.12,129.68,894.77,130.04z"/>
		<path class="st5" d="M940.59,33.41c0,0,16.33-1.33,20.79-4.71C961.32,28.7,945,32.39,940.59,33.41z"/>
		<path class="st5" d="M951.52,95.24c0,0,14.14,0.77,18.76-1.03"/>
	</g>
</g>
<path class="st5" d="M941.99,421.04c1.74-0.22,9.17-2.78,9.76-4.37c-0.11-1.49-0.88-2.85-2.1-3.71c-0.46,0.53-3.41,3.01-4.96,1.56
	c-1.22,0-0.33,1.09-0.38,1.34c-0.35,1.61-1.34,3-2.75,3.85C939.86,420.85,941.03,421.18,941.99,421.04z"/>
<path class="st5" d="M926.75,344.1c-0.55-0.25-13.24,2.56-12.74,8.37c1.17,1.46,10.44,34.99,12.52,39.8
	c2.08,4.81,16.13,24.48,16.46,25s9.08-1.85,8.59-4.25c-0.3-0.5-12.16-20.65-14.89-27.28C933.97,379.11,936.65,348.72,926.75,344.1z"
	/>
<path class="st4" d="M901.05,423.86c3.13,0.18,7.56,0,7.87-0.45c0.51-1.48,0.4-3.1-0.3-4.5c-0.65,0.3-4.37,1.31-5.08-0.63
	c-1.16-0.45-0.76,0.84-0.91,1.04c-1.4,1.25-3.12,2.08-4.96,2.42C895.54,421.69,895.64,423.54,901.05,423.86z"/>
<path class="st4" d="M933.65,346.88c-0.35-0.5-13.24-2.43-16.39,2.5c-2.33,5.31-8.07,28.12-9.81,37.14
	c-1.74,9.02-6.14,31.86-6.49,32.36c-1.77,2.47,7.31,3.39,9.35,2.6c0-0.58,7.63-30.26,8.42-31.95
	C923.31,379.82,938.96,354.41,933.65,346.88z"/>
<path class="st4" d="M918.68,356.21c-1.75,0.26-0.96,4.48-0.33,6.47c0.53,1.65,1.65,2.17,3.66,1.16
	C925.48,362.17,920.42,355.99,918.68,356.21z"/>
<path class="st4" d="M912.86,332.95c-0.83,3.13-7.97,22.47-8.98,23.26c-1.4,1.37-2.59,2.93-3.52,4.65c-0.55,1.6-0.63,3.32-0.23,4.96
	c0.63,0.68,1.11-1.44,1.29-2.78c0.18-1.34,1.06-1.92,1.51-1.57c0.93,0.73-1.19,3.23,0.48,3.09c1.11,0,2.43-5.46,2.6-5.66
	c1.27-1.65,12.33-11.86,15.02-20.89S913.83,329.26,912.86,332.95z"/>
<path class="st4" d="M907.55,294.18c-0.1,1.16,2.18,1.85,2.18,1.85c0.33,0.53-0.83,1.95-0.58,2.2c1.22,0.57,2.58,0.75,3.9,0.53
	c-0.79,0.81-4.37,0.3-4.02,1.29c0.81,1.95-1.21,3.49,0.36,4.25c0.73,0.36,2.18,0.36,4.88-0.36c0,0,1.65,6.22-0.98,9.41
	c-0.51,0.61,15.62-4.24,13.96-5.39c-1.34-1.16-2.29-2.72-2.7-4.45c0.31-2.25,7.3-5.36,7.18-10.77c0-4.05-0.88-7.16-5.48-9.1
	c-5.94-2.51-11-1.8-13.09,1.29c-2.68,3.97-1.65,5.43-2.22,6.62S907.66,293.07,907.55,294.18z"/>
<path class="st5" d="M932.78,287.18c-1.34-4.3-5.11-7.39-9.6-7.86c-5.38-0.58-5.59,0.86-9.26,0.66c-1.52-0.08-0.69-0.84-1.8-1.99
	c-3.95,1.41-2.18,6.2-0.12,7.35c-0.28,1.65,5.46,1.32,6.39,1.92s0.4,8.92,0.23,9.18c-0.31,0.53-2.32,0.68-4.02,0.69
	c-1.63,0.05-3.26-0.07-4.86-0.36c-0.4,0.1-0.66,0.49-0.6,0.89c2.78,0.86,5.97,0.91,5.67,1.22c-2.18,2.25-5.94,1.34-5.94,1.95
	c0,2.45-3.85,7.43-0.48,6.83c4.22-0.73,8.14-1.8,10.29-3.81c0.66-0.61,2.48-7.23,3.01-8.47s1.12-4.35,3.03-1.26
	c1.09,1.77-0.61,4.1-1.24,5.28c-0.63,1.17,0.98,4.12,1.09,4.22c1.39-2.96,4.63-3.72,6.34-6.39
	C931.47,296.38,934.51,291.67,932.78,287.18z"/>
<path class="st4" d="M925.13,293.17c0,0.33-9.21-1.06-9.3-0.76c-0.43,1.51-2,2.39-3.51,1.96c-1.3-0.37-2.17-1.61-2.06-2.96
	c0.01-1.39,1.14-2.51,2.53-2.5c0.11,0,0.21,0.01,0.32,0.02c1.21-0.11,2.39,0.41,3.13,1.37
	C916.41,290.64,925.13,292.82,925.13,293.17z"/>
<path class="st4" d="M938.6,356.69c-0.12,1.16-4.25,3.71-10.39,0.74c-3.21-1.56-7.94-3.82-12.18,0.22
	c-3.01,2.85-5.58,1.34-5.41,0.94c3.49-8.27-1.89-29.37-1.49-37.29c0.4-7.92,4.8-19.52,5.59-19.44c3.47,0.35,10.64-3.71,11.37-3.99
	s5.18,8.83,7.41,16.11c2.07,6.73,0,18.2,2.86,29.56C937.47,347.86,938.21,352.26,938.6,356.69z"/>
<path class="st4" d="M927.53,310.35c0,0-11.58,3.46-10.97,6.4s6.78,17.83,6.93,18.58c0,0-5.13,21.21-4.96,22.32
	c0.25,3.08,1.51,5.43,2.65,5.08c1.14-0.35,11.05-25.03,11.05-29.03S929.86,315.64,927.53,310.35z"/>
<path class="st4" d="M919.74,313.62c-4.6,3.94-5.51,14.43-2.12,20.45l13.78-4.6C930.81,327.63,929.83,309.42,919.74,313.62z"/>
<path class="st0" d="M924.21,405.38c0,0,3.31,9.07,5.21,15.4c0.64,2.1,1.13,4.25,1.46,6.42c0,0.56-1.65,1.31-2.23,2.17
	c-0.58,0.86-1.47,1.8-0.63,2.28c0.84,0.48,5.62,0.65,5.99-1.65c0.39-1.47,0.68-2.97,0.86-4.48c0.13-1.9,0-4.53,0.36-8.82
	c0.26-3.95-3.19-7.31-4.04-12.18C930.87,402.73,924.24,404.73,924.21,405.38z"/>
<path class="st0" d="M960.97,415.02c-0.35,2.08,0.69,6.83,0.55,8.47c0,0.38-3.31,4.43-3.31,6.35c-0.08,2.85-7.81,2.98-6.62,0.71
	s3.81-1.97,3.97-2.99c0.17-1.03,2.38-6.62,1.56-7.79c-4.65-6.85-11.3-11.48-7.74-15.02C952.93,401.21,963.32,401.44,960.97,415.02z"
	/>
<path class="st0" d="M922.65,374.41c-0.58,1.8,1.87,5.31,3.77,2.58c2.7-3.84,7.46-3.06,6.62-3.97c-2.18-1.48-4.88-1.95-7.43-1.31
	C924.2,371.99,923.06,373.03,922.65,374.41z"/>
<path class="st1" d="M981.03,428.06c-0.25-1.26-1.94,0-2.47-2.94c-0.6-3.31-0.08-4.67-0.66-6.24s-5.97-2.6-8.07-6.34
	c-2.1-3.74,2.02-9.35,0.17-14.76c0-0.94,0-1.54,0-1.54c10.34-2.78,12.51-17.21,3.44-18.2c-1.49-0.17,4.35,3.92,2.55,9.93
	c-1.22,4.12-9.93,4.12-9.93,4.12c-13.02-5.16-15.05-0.69-24.27-2.43c-3.14-0.58-9.38-1.41-11.02-2.22c-2.51-1.29-3.69-4.24-2.75-6.9
	c1.19-2.34,0.49-5.2-1.65-6.72c-1.01-0.87-2.12-1.62-3.31-2.23c-1.24-0.48-4.63,0.26-5.49-0.45c-2.16-1.64-4.45-3.09-6.87-4.32
	c-1.14,0.35-2.11,1.09-2.75,2.1c-0.45,0.93,0.3,2.28,0.86,3.31c0.29,0.62,0.69,1.19,1.19,1.65c-1.31-0.28-2.1-3.31-2.53-2.75
	c-0.46,0.73-0.67,1.6-0.58,2.47c0.48,1.36,5.21,6.01,6.06,7.26c1.28,1.61,2.06,3.56,2.27,5.61c0.28,2.27-1.99,7.74-1.06,13.35
	c0.23,3.43,1.56,6.7,3.81,9.31c0.13,3.04,0.1,7.01-0.83,8.67c-1.82,3.19-3.86,6.26-6.1,9.17c-0.69,0.63-4.1,1.34-4.07,2.86
	c0,2.02,4.65,1.65,7.26-0.28c2.12-1.65,12.85-14.76,12.97-18.2c11.58,5.11,19.49-3.59,28.52-2.78c1.51,2.51,3.71,6.37,6.15,8.14
	c4.38,3.19,9.74,4.37,11.13,5.15c0.66,0.38,5.67,11.58,7.4,10.34S981.28,429.3,981.03,428.06z"/>
<path class="st9" d="M919,374.41c-0.53-0.26-1.01-0.63-1.41-1.08c-0.13-0.15,1.01-1.04,1.44-0.48
	C919.21,373.07,919.23,374.41,919,374.41z"/>
<path class="st9" d="M910.86,366.28c0.79,0.79,1.19,1.31,0.88,1.65c-1.08,1.26-3.09,0.84-3.31,0.17
	C908.21,367.43,910.14,365.57,910.86,366.28z"/>
<path class="st0" d="M922.59,378.44c0.48,0.76,1.11,2.1,4.68,1.56c1.65-0.25,2.27-1.56,3.31-2.27c2.07-1.31,4.1-1.17,3.74-1.84
	c-0.36-0.66-4.22-2.75-7.73-1.79C923.54,374.95,922.11,377.72,922.59,378.44z"/>
<path class="st3" d="M913.37,391.28c0.18-1.26,15.02-6.44,15.02-6.44s2,0.65,2.05,1.65c0.05,1.01-14.76,7-16.13,7.64
	C912.94,394.79,913.17,392.61,913.37,391.28z"/>
<g>
	<g id="Layer_1_3_">
		<path class="st4" d="M51.1,373.51c2.84-2.37,8.88-1.17,8.81,6.41c0,4.9-3.1,10.97-2.43,16.29c0.13,1.09,11.87,18.19,11.87,18.19
			c3.27,4.14,2.96,7.45,2.39,8.06c-1.76,1.88-1.98-3.41-3.78-4.92c-0.63-0.43-1.36-0.71-2.12-0.8c-0.74-0.14,1.62,2.7-0.27,2.44
			c-1.89-0.26-1.32-3.38-1.89-3.89c-4.87-4.88-9.33-10.14-13.33-15.75C48.32,396.21,46.95,376.95,51.1,373.51z"/>
		<path class="st5" d="M58.58,426.55c0,0,4.65,0,5.16,1.34c0.2,0.5,6.38,0.64,6.72,2.35c0.34,1.71-6.31,1.62-9.25,1.42
			c-0.57,0-4.35-0.1-4.45-1.29C56.72,429.76,58.44,427.8,58.58,426.55z"/>
		<path class="st5" d="M22.13,409.77c0-3.03,40.54-24.93,46.27-20.54s-4.26,37.36-4.46,39.22c0,0-6.3,0.2-6.31-0.57
			c-0.1-6.17-3.44-18.48,0.38-23.5c-2.94,2.12-23.34,16.11-26.72,14.97C25.22,417.31,22.15,412.81,22.13,409.77z"/>
		<path class="st4" d="M30.33,428.12c1.02-0.83,2.13-1.52,3.33-2.06c0.54,2.03,1.81,3.79,3.55,4.96c1.14,0.8,5.69,1.42,4.72,3.41
			c-0.63,1.25-3.14,0.82-7.11,0C33.86,434.18,29.74,429.06,30.33,428.12z"/>
		<path class="st4" d="M23.27,405.38c0.75-2.52,43.34,7.79,48.33,11.61c2.3,1.78,1.28,7.89-0.77,9.55
			c-5.16,4.26-31.27,6.43-32.28,6.11c-1.72-0.58-7.66-5.25-6.85-8.02c0.1-0.33,12.08-2.36,19.22-2.84
			c-7.92-0.16-20.16,2.72-26.47-1.68C20.06,417.15,21.39,411.53,23.27,405.38z"/>
		<path class="st4" d="M51.24,373.51c1.19-1.71,6.3-4.68,4.72-7.11c-2.62-4.07-1.01-11.71,0.45-13.55
			c5.88-7.38,15.08-3.48,17.98,0.36c1.19,1.95,1.62,4.26,1.22,6.51c-0.47,2.63-1.29,2.49-1.05,4.43c0.27,2.17,0.82,2.12,0.82,2.62
			c0,1.42-1.79,1.11-1.93,1.12c-0.87,0.13-1.42,1.17-0.94,1.73c0.24,0.28-0.8,0.14-1.82-0.47c-0.52-0.37-0.99-0.8-1.42-1.28
			c0.18,0.51,0.43,0.99,0.75,1.42c0.72,0.81,1.69,1.42,1.42,1.54c-2.09,1.22-0.77,2.84-1.78,3.5c-1.28,0.84-3.87-1.59-5.69-1.27
			c-1.82,0.33-1.96,6.48-1.85,7.38C62.18,380.6,49.52,375.98,51.24,373.51z"/>
		<path class="st5" d="M75.64,353.24c-9.2-12.45-20.82-2.5-21.99,1.14c-0.87,2.64-1.3,5.41-1.25,8.19
			c-5.69,1.85-10.43,4.26-16.49,12.32c-2.67,3.48-3.58,7.86-4.8,12.01c6.99,2.42,24.99-18.48,25.1-18.48
			c5.4-2.96,1.95-5.3,5.16-7.86c1.88-1.52,2.73,1.27,3.45,1.07c2.73-0.75,5.4-3.43,9.57-2.96c1.69,0.18,2,1.19,2.26-0.57
			C76.87,356.41,76.52,354.7,75.64,353.24z"/>
		<path class="st4" d="M21.07,415.07c6.28,8.93,34.5,0.7,30.23-2.84c-1.22-1.02-4.07-2.25-2.67-4.72
			c2.84-5.07,10.21-11.1,12.1-14.46c1.89-3.35,1.42-9.95,2.72-16.01c0.3-1.42-1.76,0.44-5.16-2.84c-3.03-2.97-2.56-3.37-3.65-4.9
			c-0.77-1.08-9.3,3.55-12.27,5.84C25.67,388.09,20.33,408.61,21.07,415.07z"/>
		<g class="st8">
			<path class="st4" d="M47.53,378.83c-0.35,5.2,0.99,10.37,3.82,14.74c1.15,1.85,2.59,3.51,4.26,4.92l3.28-3.55
				c0,0-3.28-1.49-7.65-9.28C49.88,383.28,47.53,378.83,47.53,378.83z"/>
		</g>
		<path class="st4" d="M56.03,375.13c4.26,3.1,6.79,16.79,10.92,17.06c0.7,0,17.97-0.68,19.55-1.14c0.88-0.24,4.12-6.85,5.13-6.67
			c0.5,0.1-0.27,3.47-1.61,5.91c-0.38,0.7-0.51,2.36-1.07,3.34c-0.81,1.42-2.2,0.81-3.34,1.32c-1.14,0.51-19.39,5.88-23.7,4.73
			c-4.31-1.15-14.54-12.79-14.71-19.52C47.04,373.78,51.17,371.59,56.03,375.13z"/>
		<path class="st0" d="M116.19,391.05c-1.55,0-9.95,7.55-11.37,7.11c-1.42-0.44-5.88-6.67-8.53-7.11c-2.33-0.43-6.13-3.62-5.83-0.63
			c0.55,5.33,3.91,3.68,5.56,5.29c0.72,0.7,5.76,7.92,7.76,7.95c4.47-0.52,8.86-1.58,13.08-3.16
			C120.58,399.04,117.71,391.05,116.19,391.05z"/>
		<path class="st0" d="M131.83,427.61c-1.27,0-8.53-1-6.68,2.84c0.45,0.94,11.67,0.16,12.72-0.13L131.83,427.61z"/>
		<path class="st1" d="M162.6,415.54c-0.7-1.63-3.03,13.21-13.49,9.95c-0.53-1.34-0.34-7.02-1.32-11.37
			c-2.52-11.31-16.39-22.52-20.68-30.83c-0.98-4.48-0.44-12.96-9.81-12.68c-4.16,0.13-5.27,2.84-6.41,2.97s-8.15-0.38-8.74,0.84
			c-0.46,1.69-0.19,3.49,0.74,4.98c1.51,1.22,5.22,0.09,5.13,0.18c-1.14,1.31-4.46,0.33-4.61,0.78c-0.87,2.84,4.79,3.41,7.59,3.21
			c5.32-0.37-0.58,9.78,1.89,19.9c1.02,4.26,3.99,8.53,3.18,10.83c-0.81,2.3-2.64,13.01-3.35,14.64c-0.71,1.63-5.9,0.2-5.59,2.94
			c0.31,2.74,4.88,1.83,6.81,1.42s4.36-5.29,5.49-7.82l2.84-7.32l5.39,3.55c0.47,3.54,3.16,9.2,6.41,9.35c0,0-5.39-0.2-5.49,1.22
			s-0.51,2.33,5.17,2.33c3.98-0.04,7.96-0.35,11.9-0.91c1.29-0.14,1.32-1.71,1.22-2.62c0.55,0,1.59-1.85,2.76-1.72
			C162.84,430.97,163.98,418.81,162.6,415.54z"/>
		<path class="st2" d="M115.21,375.53c-0.48,0.01-0.96-0.05-1.42-0.17c-0.44-0.1-0.48-0.61-0.94-0.7c0.37-0.4,0.88-0.64,1.42-0.67
			C114.93,373.99,115.32,375.36,115.21,375.53z"/>
		<path class="st2" d="M102.3,373.42c-0.63,0.55-0.77,2.16,0.21,2.15c1.2-0.2,2.25-0.94,2.84-2
			C104.37,373.24,103.32,373.19,102.3,373.42z"/>
		<path class="st0" d="M125.97,382.2c-1.09-4.71,0.87-7.11-0.75-10.08c-0.74-1.35-7.41-2.46-6.79-0.37s-2.5,4.63-1.93,7.43
			C117.61,384.75,126.82,385.79,125.97,382.2z"/>
		<path class="st3" d="M113.25,386.69c1.18-0.4,1.79,0.61,7.36,0.1c2.67-0.15,5.22-1.19,7.22-2.97c0.47-0.58,1.89,1.42,1.71,2.54
			c-0.18,1.12-4.65,3.47-10.75,3.95c-4.26,0.33-5.26,0-6.01-0.31C112.03,389.69,112.68,386.9,113.25,386.69z"/>
		<path class="st5" d="M21.07,415.07c4.94,4.09,11.61,5.4,17.73,3.48c10.59-3.23,13.9-2.94,14.37-7.89c0,0,2.25,3.1-5.97,6.7
			S26.75,422.78,21.07,415.07z"/>
	</g>
</g>
</svg>
