<?xml version="1.0" encoding="utf-8"?>
<!-- Generator: Adobe Illustrator 25.0.0, SVG Export Plug-In . SVG Version: 6.00 Build 0)  -->
<svg version="1.1" xmlns="http://www.w3.org/2000/svg" xmlns:xlink="http://www.w3.org/1999/xlink" x="0px" y="0px"
	 viewBox="0 0 1022 504" style="enable-background:new 0 0 1022 504;" xml:space="preserve">
<style type="text/css">
	.st0{fill:#4bc8d8;}
	.st1{fill:#C6C6C5;}
	.st2{fill:#008997;}
	.st3{fill:#00B0C2;}
	.st4{fill:#343A43;}
	.st5{fill:#1C2026;}
	.st6{fill:#ECECEC;}
	.st7{fill:#3D1E15;}
	.st8{fill:#FFFFFF;}
	.st9{fill:#D9D9D9;}
	.st10{fill:#DDC6A3;}
	.st11{fill:#EFDCBD;}
	.st12{fill:#E4CAA9;}
	.st13{fill:#FDEBD3;}
	.st14{fill:#DCB68F;}
	.st15{fill:#352E35;}
	.st16{fill:#524854;}
	.st17{fill:#504240;}
	.st18{fill:#8B624A;}
	.st19{fill:#614432;}
	.st20{fill:#2B1107;}
	.st21{fill:#9A6D52;}
	.st22{opacity:0.2;fill:#9A6D52;}
	.st23{fill:#CEB9A8;}
	.st24{opacity:0.5;fill:#FFFFFF;}
	.st25{fill:none;stroke:#3D1E15;stroke-width:0.9019;stroke-miterlimit:10;}
	.st26{fill:#B1B1B1;}
	.st27{fill:#21252D;}
	.st28{fill:#1F232A;}
	.st29{fill:#5A3F2D;}
	.st30{fill:#20252B;}
	.st31{fill:#363D46;}
	.st32{fill:#3F4651;}
	.st33{fill:#7D736B;}
	.st34{fill:#2A2F37;}
	.st35{fill:#EB646E;}
	.st36{fill:#F4B098;}
	.st37{fill:#E4CFBA;}
</style>
<g id="Layer_2">
	<rect x="0" y="1" class="st0" width="1022" height="503"/>
</g>
<g id="Layer_1">
	<g>
		<polygon class="st1" points="908.86,336.75 944.76,342.26 847.64,382.57 697.4,366.36 730.69,354.77 		"/>
		<g>
			<polygon class="st2" points="931.51,218.74 908.86,336.75 833.47,362.85 847.64,246.54 			"/>
			<polygon class="st3" points="781.19,175.71 847.64,246.54 833.47,362.85 730.69,354.77 714.73,246.54 			"/>
			<polygon class="st4" points="847.64,246.54 931.51,218.74 856.58,155.44 781.19,167.36 710.56,243.06 714.73,246.54 
				781.19,175.71 			"/>
			<g>
				<path class="st5" d="M781.19,167.36c0,0,1.15,1.18,3.17,3.25c2,2.08,4.88,5.03,8.28,8.62c3.4,3.6,7.4,7.76,11.62,12.28
					c4.22,4.52,8.72,9.34,13.22,14.16c4.46,4.86,8.92,9.72,13.1,14.27c4.19,4.55,8.02,8.86,11.35,12.53
					c3.32,3.67,6.03,6.77,7.96,8.92c1.91,2.17,3,3.41,3,3.41s-1.15-1.18-3.17-3.25c-2-2.08-4.88-5.03-8.28-8.62
					c-3.4-3.6-7.4-7.75-11.61-12.28c-4.22-4.52-8.72-9.34-13.22-14.16c-4.46-4.86-8.92-9.72-13.1-14.27
					c-4.18-4.55-8.02-8.86-11.35-12.53c-3.32-3.67-6.04-6.77-7.96-8.92C782.28,168.6,781.19,167.36,781.19,167.36z"/>
			</g>
			<g>
				<g>
					<path class="st5" d="M785.19,166.43c0,0,1.14,1.17,3.15,3.23c1.98,2.07,4.85,5,8.23,8.57c3.37,3.57,7.35,7.71,11.54,12.2
						c4.19,4.49,8.66,9.28,13.13,14.07c4.43,4.83,8.86,9.65,13.02,14.18c4.16,4.52,7.97,8.81,11.27,12.45c3.3,3.64,6,6.73,7.91,8.87
						c1.89,2.15,2.98,3.38,2.98,3.38s-1.14-1.17-3.15-3.23c-1.98-2.07-4.85-5-8.23-8.57c-3.37-3.57-7.35-7.7-11.54-12.2
						c-4.19-4.49-8.66-9.28-13.13-14.07c-4.43-4.83-8.86-9.65-13.02-14.18c-4.16-4.52-7.97-8.81-11.27-12.45
						c-3.3-3.64-6-6.73-7.91-8.87C786.27,167.66,785.19,166.43,785.19,166.43z"/>
				</g>
				<g>
					<path class="st5" d="M789.69,166.02c0,0,1.13,1.16,3.12,3.2c1.97,2.05,4.81,4.96,8.16,8.5c3.35,3.54,7.29,7.64,11.45,12.1
						c4.16,4.45,8.59,9.21,13.03,13.96c4.4,4.79,8.79,9.58,12.91,14.06c4.12,4.49,7.9,8.74,11.18,12.35
						c3.27,3.61,5.95,6.67,7.84,8.79c1.88,2.14,2.95,3.36,2.95,3.36s-1.13-1.16-3.12-3.2c-1.97-2.05-4.81-4.95-8.16-8.5
						c-3.35-3.54-7.29-7.64-11.45-12.1c-4.16-4.45-8.59-9.21-13.03-13.96c-4.4-4.79-8.79-9.58-12.91-14.06
						c-4.12-4.49-7.9-8.74-11.18-12.35c-3.27-3.61-5.95-6.67-7.84-8.79C790.76,167.24,789.69,166.02,789.69,166.02z"/>
				</g>
				<g>
					<path class="st5" d="M793.94,165.35c0,0,1.13,1.15,3.1,3.18c1.95,2.04,4.78,4.92,8.1,8.43c3.32,3.52,7.24,7.58,11.36,12.01
						c4.13,4.42,8.53,9.14,12.93,13.85c4.36,4.75,8.73,9.5,12.82,13.96c4.09,4.45,7.85,8.67,11.1,12.25
						c3.25,3.59,5.9,6.63,7.78,8.73c1.86,2.12,2.93,3.33,2.93,3.33s-1.13-1.15-3.1-3.18c-1.95-2.04-4.78-4.92-8.1-8.43
						c-3.32-3.52-7.24-7.58-11.36-12.01c-4.13-4.42-8.53-9.14-12.93-13.85c-4.36-4.75-8.73-9.51-12.82-13.96
						c-4.09-4.45-7.85-8.67-11.1-12.26c-3.25-3.59-5.9-6.63-7.78-8.73C795,166.56,793.94,165.35,793.94,165.35z"/>
				</g>
				<g>
					<path class="st5" d="M798.18,164.68c0,0,1.12,1.15,3.08,3.15c1.94,2.02,4.74,4.88,8.04,8.37c3.3,3.49,7.18,7.53,11.28,11.92
						c4.1,4.39,8.47,9.07,12.84,13.75c4.33,4.72,8.66,9.43,12.72,13.86c4.06,4.42,7.79,8.61,11.01,12.16
						c3.22,3.56,5.86,6.58,7.72,8.67c1.85,2.11,2.91,3.31,2.91,3.31s-1.12-1.15-3.08-3.15c-1.94-2.02-4.74-4.88-8.05-8.37
						c-3.3-3.49-7.19-7.53-11.28-11.92c-4.1-4.39-8.47-9.07-12.83-13.75c-4.33-4.72-8.66-9.43-12.72-13.86
						c-4.06-4.42-7.79-8.61-11.01-12.16c-3.22-3.56-5.86-6.58-7.72-8.67C799.24,165.88,798.18,164.68,798.18,164.68z"/>
				</g>
				<g>
					<path class="st5" d="M802.43,164.01c0,0,1.11,1.14,3.05,3.13c1.92,2.01,4.71,4.84,7.99,8.3c3.27,3.46,7.13,7.47,11.2,11.83
						c4.07,4.36,8.4,9,12.74,13.65c4.3,4.68,8.6,9.36,12.63,13.75c4.03,4.39,7.73,8.54,10.93,12.07c3.2,3.53,5.81,6.53,7.66,8.6
						c1.83,2.09,2.88,3.28,2.88,3.28s-1.11-1.14-3.05-3.13c-1.92-2.01-4.71-4.84-7.99-8.3c-3.27-3.46-7.13-7.47-11.2-11.83
						c-4.07-4.36-8.4-9-12.74-13.65c-4.3-4.68-8.6-9.36-12.62-13.75c-4.03-4.39-7.73-8.54-10.93-12.07c-3.2-3.53-5.81-6.53-7.66-8.6
						C803.48,165.2,802.43,164.01,802.43,164.01z"/>
				</g>
				<g>
					<path class="st5" d="M806.68,163.33c0,0,1.11,1.13,3.04,3.1c1.92,1.99,4.69,4.8,7.96,8.23c3.26,3.43,7.11,7.4,11.16,11.72
						c4.05,4.32,8.38,8.92,12.7,13.52c4.28,4.64,8.57,9.28,12.59,13.63c4.02,4.35,7.7,8.47,10.9,11.97c3.19,3.5,5.79,6.47,7.64,8.53
						c1.83,2.07,2.87,3.26,2.87,3.26s-1.11-1.13-3.04-3.1c-1.92-1.99-4.69-4.8-7.96-8.23c-3.26-3.43-7.11-7.4-11.16-11.72
						c-4.05-4.32-8.38-8.92-12.7-13.52c-4.28-4.64-8.57-9.28-12.59-13.63c-4.02-4.35-7.7-8.47-10.9-11.97
						c-3.19-3.5-5.79-6.47-7.64-8.53C807.72,164.52,806.68,163.33,806.68,163.33z"/>
				</g>
				<g>
					<path class="st5" d="M810.93,162.66c0,0,1.09,1.12,3.01,3.08c1.9,1.98,4.64,4.77,7.87,8.18c3.23,3.41,7.03,7.36,11.03,11.65
						c4,4.29,8.28,8.86,12.55,13.44c4.23,4.61,8.47,9.22,12.43,13.55c3.97,4.32,7.61,8.42,10.76,11.89
						c3.15,3.48,5.72,6.43,7.55,8.47c1.81,2.06,2.84,3.24,2.84,3.24s-1.09-1.12-3.01-3.08c-1.9-1.98-4.64-4.77-7.87-8.18
						c-3.22-3.41-7.03-7.35-11.03-11.65c-4-4.29-8.28-8.86-12.55-13.44c-4.23-4.61-8.46-9.22-12.43-13.55
						c-3.97-4.32-7.61-8.42-10.76-11.89c-3.15-3.48-5.72-6.43-7.55-8.47C811.96,163.84,810.93,162.66,810.93,162.66z"/>
				</g>
				<g>
					<path class="st5" d="M815.18,161.99c0,0,1.09,1.11,2.99,3.06c1.88,1.96,4.6,4.73,7.81,8.11c3.2,3.39,6.97,7.3,10.95,11.56
						c3.97,4.26,8.21,8.8,12.45,13.34c4.2,4.58,8.4,9.15,12.34,13.44c3.94,4.29,7.55,8.35,10.68,11.8c3.13,3.45,5.68,6.38,7.49,8.41
						c1.79,2.04,2.82,3.21,2.82,3.21s-1.09-1.11-2.99-3.05c-1.88-1.96-4.61-4.73-7.81-8.11c-3.2-3.39-6.98-7.3-10.95-11.56
						c-3.97-4.26-8.21-8.8-12.45-13.34c-4.2-4.58-8.4-9.15-12.34-13.44c-3.94-4.29-7.55-8.35-10.68-11.8
						c-3.12-3.46-5.68-6.38-7.49-8.41C816.2,163.16,815.18,161.99,815.18,161.99z"/>
				</g>
				<g>
					<path class="st5" d="M819.43,161.32c0,0,1.08,1.1,2.96,3.03c1.87,1.95,4.57,4.69,7.75,8.05c3.18,3.36,6.92,7.24,10.86,11.47
						c3.94,4.22,8.15,8.73,12.36,13.23c4.17,4.54,8.33,9.08,12.24,13.34c3.91,4.25,7.49,8.29,10.6,11.71
						c3.1,3.43,5.63,6.34,7.43,8.35c1.78,2.03,2.79,3.19,2.79,3.19s-1.08-1.1-2.96-3.03c-1.87-1.95-4.57-4.69-7.75-8.05
						c-3.18-3.36-6.92-7.24-10.86-11.47c-3.94-4.22-8.15-8.73-12.36-13.23c-4.17-4.54-8.33-9.08-12.24-13.34
						c-3.91-4.26-7.49-8.29-10.59-11.71c-3.1-3.43-5.63-6.34-7.43-8.35C820.44,162.48,819.43,161.32,819.43,161.32z"/>
				</g>
				<g>
					<path class="st5" d="M823.81,160.79c0,0,1.09,1.08,2.99,2.98c1.88,1.92,4.61,4.62,7.81,7.92c3.2,3.31,6.98,7.13,10.95,11.29
						c3.98,4.16,8.22,8.59,12.46,13.03c4.2,4.47,8.41,8.94,12.35,13.14c3.95,4.19,7.56,8.16,10.69,11.54
						c3.13,3.38,5.68,6.24,7.5,8.22c1.79,2,2.82,3.14,2.82,3.14s-1.09-1.08-2.99-2.98c-1.88-1.92-4.61-4.62-7.81-7.92
						c-3.2-3.31-6.98-7.13-10.95-11.29c-3.98-4.16-8.22-8.59-12.46-13.03c-4.2-4.47-8.41-8.94-12.35-13.14
						c-3.94-4.19-7.56-8.16-10.69-11.54c-3.13-3.38-5.68-6.24-7.5-8.22C824.83,161.93,823.81,160.79,823.81,160.79z"/>
				</g>
				<g>
					<path class="st5" d="M828.05,159.96c0,0,1.1,1.07,3.03,2.94c1.91,1.89,4.68,4.56,7.93,7.81c3.25,3.26,7.09,7.03,11.12,11.14
						c4.04,4.1,8.35,8.48,12.66,12.86c4.27,4.41,8.54,8.83,12.55,12.97c4.01,4.13,7.68,8.06,10.86,11.39
						c3.18,3.33,5.78,6.16,7.62,8.12c1.82,1.97,2.87,3.1,2.87,3.1s-1.1-1.07-3.03-2.94c-1.91-1.89-4.68-4.55-7.93-7.81
						c-3.25-3.26-7.09-7.03-11.12-11.14c-4.04-4.1-8.35-8.48-12.66-12.86c-4.27-4.41-8.54-8.83-12.54-12.97
						c-4.01-4.14-7.68-8.06-10.86-11.39c-3.18-3.33-5.78-6.16-7.62-8.12C829.1,161.08,828.05,159.96,828.05,159.96z"/>
				</g>
				<g>
					<path class="st5" d="M832.49,159.38c0,0,1.11,1.05,3.06,2.89c1.93,1.86,4.72,4.48,8,7.69c3.28,3.21,7.15,6.92,11.23,10.96
						c4.08,4.04,8.43,8.34,12.78,12.65c4.31,4.34,8.62,8.69,12.66,12.76c4.05,4.07,7.76,7.94,10.97,11.21
						c3.21,3.28,5.83,6.07,7.69,8c1.84,1.94,2.9,3.06,2.9,3.06s-1.11-1.05-3.06-2.89c-1.93-1.86-4.72-4.48-8-7.69
						c-3.28-3.21-7.15-6.92-11.22-10.96c-4.08-4.04-8.43-8.35-12.78-12.65c-4.31-4.35-8.62-8.69-12.66-12.76
						c-4.04-4.07-7.76-7.93-10.97-11.21c-3.21-3.28-5.83-6.07-7.69-8C833.54,160.49,832.49,159.38,832.49,159.38z"/>
				</g>
				<g>
					<path class="st5" d="M836.42,158.63c0,0,1.13,1.04,3.12,2.85c1.96,1.83,4.81,4.41,8.15,7.57c3.35,3.16,7.29,6.81,11.44,10.79
						c4.16,3.98,8.59,8.22,13.03,12.47c4.4,4.28,8.79,8.56,12.92,12.58c4.13,4.01,7.91,7.82,11.19,11.05
						c3.27,3.24,5.95,5.99,7.85,7.88c1.88,1.92,2.95,3.01,2.95,3.01s-1.13-1.04-3.12-2.85c-1.96-1.83-4.81-4.41-8.16-7.57
						c-3.35-3.16-7.29-6.81-11.44-10.79c-4.16-3.98-8.59-8.22-13.02-12.47c-4.4-4.28-8.79-8.57-12.92-12.58
						c-4.12-4.01-7.91-7.82-11.19-11.06c-3.27-3.24-5.95-5.98-7.85-7.88C837.49,159.73,836.42,158.63,836.42,158.63z"/>
				</g>
				<g>
					<path class="st5" d="M840.06,158.13c0,0,1.14,1.02,3.15,2.81c1.99,1.8,4.86,4.35,8.24,7.46c3.38,3.12,7.36,6.71,11.56,10.64
						c4.2,3.92,8.68,8.1,13.17,12.29c4.45,4.22,8.89,8.44,13.06,12.4c4.17,3.95,8,7.71,11.31,10.9c3.31,3.19,6.02,5.9,7.94,7.78
						c1.9,1.89,2.99,2.97,2.99,2.97s-1.14-1.02-3.15-2.8c-1.99-1.8-4.86-4.34-8.24-7.46c-3.38-3.12-7.36-6.71-11.56-10.64
						c-4.2-3.92-8.68-8.11-13.17-12.29c-4.45-4.22-8.89-8.45-13.06-12.4c-4.17-3.96-8-7.71-11.31-10.9
						c-3.31-3.19-6.02-5.9-7.94-7.78C841.14,159.22,840.06,158.13,840.06,158.13z"/>
				</g>
				<g>
					<path class="st5" d="M843.53,157.51c0,0,1.15,1.01,3.17,2.77c2,1.78,4.89,4.3,8.31,7.38c3.41,3.08,7.42,6.64,11.66,10.52
						c4.24,3.88,8.76,8.02,13.27,12.16c4.48,4.18,8.97,8.36,13.17,12.27c4.21,3.91,8.07,7.63,11.41,10.79
						c3.34,3.16,6.07,5.84,8.01,7.7c1.92,1.87,3.02,2.94,3.02,2.94s-1.15-1.01-3.17-2.77c-2-1.78-4.89-4.3-8.31-7.38
						c-3.41-3.08-7.42-6.64-11.66-10.52c-4.24-3.88-8.75-8.02-13.27-12.16c-4.48-4.18-8.96-8.36-13.17-12.27
						c-4.2-3.91-8.07-7.63-11.41-10.79c-3.34-3.16-6.07-5.84-8.01-7.7C844.62,158.58,843.53,157.51,843.53,157.51z"/>
				</g>
				<g>
					<path class="st5" d="M847.64,157.03c0,0,1.16,0.99,3.19,2.73c2.01,1.76,4.91,4.23,8.34,7.26c3.42,3.04,7.45,6.54,11.71,10.36
						c4.26,3.82,8.8,7.9,13.33,11.97c4.5,4.11,9.01,8.23,13.23,12.09c4.23,3.85,8.11,7.52,11.46,10.63c3.36,3.11,6.1,5.76,8.05,7.59
						c1.93,1.85,3.03,2.9,3.03,2.9s-1.16-0.99-3.19-2.73c-2.01-1.76-4.92-4.23-8.34-7.26c-3.42-3.04-7.46-6.54-11.71-10.36
						c-4.26-3.82-8.79-7.9-13.33-11.97c-4.5-4.12-9.01-8.23-13.23-12.09c-4.22-3.86-8.11-7.52-11.46-10.63
						c-3.35-3.11-6.1-5.76-8.05-7.59C848.75,158.09,847.64,157.03,847.64,157.03z"/>
				</g>
				<g>
					<path class="st5" d="M851.23,156.41c0,0,1.17,0.98,3.21,2.7c2.03,1.73,4.96,4.18,8.42,7.17c3.45,3,7.52,6.46,11.81,10.23
						c4.29,3.77,8.88,7.8,13.46,11.83c4.55,4.07,9.09,8.13,13.35,11.94c4.27,3.81,8.18,7.43,11.57,10.5
						c3.39,3.07,6.16,5.69,8.12,7.5c1.95,1.83,3.06,2.87,3.06,2.87s-1.17-0.98-3.21-2.7c-2.03-1.73-4.96-4.17-8.42-7.17
						c-3.45-3-7.52-6.45-11.81-10.23c-4.29-3.77-8.88-7.8-13.46-11.83c-4.55-4.07-9.09-8.13-13.35-11.95
						c-4.26-3.81-8.18-7.43-11.57-10.5c-3.39-3.08-6.16-5.69-8.13-7.5C852.34,157.45,851.23,156.41,851.23,156.41z"/>
				</g>
				<g>
					<path class="st5" d="M854.1,155.75c0,0,1.19,0.97,3.28,2.66c2.07,1.71,5.06,4.12,8.59,7.08c3.53,2.96,7.68,6.37,12.06,10.1
						c4.39,3.73,9.06,7.7,13.74,11.68c4.64,4.02,9.29,8.03,13.64,11.8c4.36,3.76,8.36,7.34,11.82,10.38c3.46,3.04,6.3,5.62,8.3,7.41
						c1.99,1.8,3.13,2.84,3.13,2.84s-1.19-0.97-3.28-2.66c-2.07-1.71-5.06-4.12-8.59-7.08c-3.53-2.96-7.68-6.37-12.06-10.1
						c-4.38-3.73-9.06-7.7-13.74-11.68c-4.64-4.02-9.28-8.03-13.64-11.8c-4.35-3.76-8.36-7.34-11.82-10.38
						c-3.46-3.04-6.3-5.62-8.3-7.41C855.23,156.78,854.1,155.75,854.1,155.75z"/>
				</g>
			</g>
			<path class="st4" d="M802.43,360.54l8.5-64.91c0.81-27.42-29.74-26.34-29.74-26.34s-30.55-1.08-29.74,26.34l8.9,61.7
				L802.43,360.54"/>
			<path class="st4" d="M789.67,313.9c0.81-27.42-29.74-26.34-29.74-26.34s-3.38-0.12-7.85,0.73c4.32-19.88,29.11-19.01,29.11-19.01
				s30.55-1.08,29.74,26.34l-8.5,64.91l-18.59-1.44L789.67,313.9z"/>
			<polygon class="st6" points="714.73,246.54 781.19,175.71 847.64,246.54 833.47,362.85 821.03,362.85 832.49,250.72 
				779.52,193.99 716.02,259.06 			"/>
			<rect x="749.16" y="232.74" class="st1" width="59.89" height="27.59"/>
			<g>
				<path class="st7" d="M788.58,224.52c0,0-1.33,2.25-7.4,2.1c-6.07,0.14-7.4-2.1-7.4-2.1c-1.21-1.27-1.62-3.5-0.86-5.13
					c0,0,2.36-3.71,6.04-5.18c0,0,1.29-0.56,2.2-0.59v0c0.01,0,0.01,0,0.02,0c0.01,0,0.01,0,0.02,0v0c0.92,0.03,2.2,0.59,2.2,0.59
					c3.68,1.48,6.04,5.18,6.04,5.18C790.2,221.03,789.78,223.25,788.58,224.52z"/>
				<path class="st7" d="M775.48,208.82c0.3,2.18,1.81,3.77,3.37,3.55c1.56-0.22,2.58-2.16,2.27-4.34c-0.3-2.18-1.81-3.77-3.37-3.56
					C776.2,204.69,775.18,206.64,775.48,208.82z"/>
				<path class="st7" d="M782.71,207.99c-0.64,2.1,0.06,4.18,1.56,4.64c1.51,0.46,3.25-0.87,3.89-2.98
					c0.64-2.11-0.06-4.19-1.56-4.64C785.1,204.55,783.36,205.89,782.71,207.99z"/>
				<path class="st7" d="M788.43,211.95c-1.29,1.79-1.3,3.98-0.02,4.9c1.28,0.92,3.35,0.22,4.64-1.57c1.29-1.78,1.3-3.98,0.02-4.9
					C791.8,209.47,789.72,210.17,788.43,211.95z"/>
				<path class="st7" d="M775.13,211.63c0.88,2.02,0.43,4.16-1.02,4.79c-1.44,0.63-3.33-0.49-4.21-2.51
					c-0.88-2.02-0.43-4.16,1.02-4.79C772.37,208.49,774.25,209.61,775.13,211.63z"/>
			</g>
			<g>
				<path class="st7" d="M744.96,346.58c0,0-0.73,1.23-4.04,1.15c-3.31,0.08-4.03-1.15-4.03-1.15c-0.66-0.69-0.88-1.91-0.47-2.79
					c0,0,1.29-2.02,3.29-2.83c0,0,0.7-0.31,1.2-0.32v0c0,0,0.01,0,0.01,0c0,0,0.01,0,0.01,0v0c0.5,0.01,1.2,0.32,1.2,0.32
					c2.01,0.81,3.29,2.83,3.29,2.83C745.84,344.67,745.61,345.88,744.96,346.58z"/>
				<path class="st7" d="M737.82,338.01c0.16,1.19,0.99,2.06,1.84,1.94c0.85-0.12,1.4-1.18,1.24-2.37
					c-0.16-1.19-0.99-2.06-1.84-1.94C738.21,335.76,737.65,336.83,737.82,338.01z"/>
				<path class="st7" d="M741.76,337.57c-0.35,1.15,0.03,2.28,0.85,2.53c0.82,0.25,1.77-0.48,2.12-1.62
					c0.35-1.15-0.03-2.28-0.85-2.53C743.06,335.69,742.11,336.42,741.76,337.57z"/>
				<path class="st7" d="M744.88,339.72c-0.7,0.97-0.71,2.17-0.01,2.67c0.7,0.5,1.83,0.12,2.53-0.85c0.7-0.97,0.71-2.17,0.01-2.67
					C746.72,338.37,745.58,338.75,744.88,339.72z"/>
				<path class="st7" d="M737.63,339.55c0.48,1.1,0.23,2.27-0.55,2.61c-0.78,0.34-1.81-0.27-2.29-1.37
					c-0.48-1.1-0.23-2.27,0.56-2.61C736.12,337.84,737.15,338.45,737.63,339.55z"/>
			</g>
			<g>
				<path class="st7" d="M742.17,311.55c0,0,0.2,1.41-2.45,3.4c-2.55,2.11-3.88,1.6-3.88,1.6c-0.94-0.14-1.87-0.95-2.1-1.9
					c0,0-0.24-2.38,0.83-4.26c0,0,0.36-0.67,0.74-1v0c0,0,0.01,0,0.01,0c0,0,0-0.01,0.01-0.01v0c0.4-0.3,1.14-0.49,1.14-0.49
					c2.07-0.61,4.33,0.18,4.33,0.18C741.68,309.51,742.25,310.6,742.17,311.55z"/>
				<path class="st7" d="M731.26,309.26c0.87,0.83,2.05,1,2.64,0.38c0.59-0.62,0.37-1.8-0.5-2.63c-0.86-0.83-2.05-1-2.64-0.38
					C730.17,307.25,730.39,308.43,731.26,309.26z"/>
				<path class="st7" d="M734.07,306.46c0.44,1.12,1.44,1.77,2.24,1.46c0.8-0.31,1.09-1.47,0.66-2.59s-1.44-1.77-2.24-1.46
					C733.93,304.18,733.63,305.34,734.07,306.46z"/>
				<path class="st7" d="M737.86,306.22c0.05,1.2,0.79,2.14,1.65,2.1c0.86-0.04,1.51-1.04,1.46-2.24c-0.05-1.2-0.79-2.14-1.65-2.1
					C738.46,304.02,737.81,305.02,737.86,306.22z"/>
				<path class="st7" d="M732.06,310.58c1.06,0.57,1.59,1.64,1.19,2.39c-0.4,0.76-1.59,0.91-2.65,0.35
					c-1.06-0.57-1.59-1.64-1.19-2.39C729.81,310.17,731,310.01,732.06,310.58z"/>
			</g>
			<g>
				<path class="st7" d="M738.25,279.37c0,0-1.13,0.87-4.17-0.44c-3.1-1.16-3.32-2.57-3.32-2.57c-0.35-0.89-0.11-2.1,0.6-2.77
					c0,0,1.95-1.4,4.11-1.4c0,0,0.76-0.02,1.23,0.15l0,0c0.01,0,0.01,0.01,0.01,0.01c0,0,0.01,0,0.01,0l0,0c0.46,0.2,1,0.75,1,0.75
					c1.56,1.49,2,3.84,2,3.84C739.78,277.93,739.11,278.98,738.25,279.37z"/>
				<path class="st7" d="M734.8,268.77c-0.29,1.16,0.15,2.28,0.98,2.48c0.83,0.21,1.74-0.57,2.03-1.74
					c0.29-1.16-0.15-2.28-0.98-2.48C736,266.83,735.1,267.61,734.8,268.77z"/>
				<path class="st7" d="M738.63,269.82c-0.76,0.94-0.82,2.13-0.15,2.67c0.67,0.54,1.82,0.22,2.58-0.72
					c0.75-0.93,0.82-2.13,0.15-2.67C740.53,268.56,739.38,268.89,738.63,269.82z"/>
				<path class="st7" d="M740.72,272.99c-1.01,0.64-1.46,1.75-1,2.47c0.46,0.72,1.65,0.79,2.67,0.15c1.01-0.64,1.47-1.75,1.01-2.47
					C742.93,272.41,741.74,272.35,740.72,272.99z"/>
				<path class="st7" d="M734.06,270.12c0.03,1.2-0.63,2.19-1.49,2.22c-0.86,0.03-1.58-0.93-1.62-2.12
					c-0.03-1.2,0.63-2.19,1.49-2.22C733.29,267.97,734.02,268.92,734.06,270.12z"/>
			</g>
			<g>
				<rect x="751.24" y="230.28" class="st8" width="59.89" height="27.59"/>
				<rect x="754.49" y="233.69" class="st9" width="53.4" height="20.78"/>
			</g>
		</g>
	</g>
	<g>
		<path class="st9" d="M929.62,377.43c0-3.74-15.89-6.77-35.5-6.77c-19.61,0-35.5,3.03-35.5,6.77c0,0.2,0.05,0.39,0.14,0.59
			c-0.78-0.01-1.55-0.02-2.34-0.02c-23.76,0-43.02,4.95-43.02,11.05c0,6.1,19.26,11.05,43.02,11.05c23.76,0,43.02-4.95,43.02-11.05
			c0-1.74-1.58-3.39-4.37-4.86C914.24,384.11,929.62,381.11,929.62,377.43z"/>
		<g>
			<path class="st10" d="M885.47,376.58c-1.45,2.18-10.84,3.63-12.59,0c-1.75-3.63,5.11-4.16,4.58-6.21
				c-1.96-7.59-6.55-26.16-6.55-33.45c0-9.26,18.25,6.25,18.14,15.69c-0.08,6.68-1.96,14.46-3.05,18.43
				C885.53,372.68,886.92,374.4,885.47,376.58z"/>
			<path class="st10" d="M900.35,375.23c1.45,2.18,10.84,3.63,12.59,0c1.75-3.63-5.11-4.16-4.58-6.21
				c1.96-7.59,6.55-26.16,6.55-33.45c0-9.26-18.25,6.25-18.14,15.69c0.08,6.68,1.96,14.46,3.05,18.43
				C900.28,371.33,898.9,373.05,900.35,375.23z"/>
			<path class="st11" d="M892.21,312.07c-11.55-3.01-26.9-3.97-34.26-3.97c-7.36,0-14.36,1.74-18.15,13.93
				c-1.48,4.75-0.57-5.56-5.17-2.74c-3.39,2.08-7.69,13.07-5.38,25.55c2.67,14.39,24.95,23.67,47.46,19.66
				c16.39-2.92,32.79-8.62,37.73-25.69C916.67,331.1,911.31,317.04,892.21,312.07z"/>
			<path class="st12" d="M867.36,304.67c-5.81-3-13.52-3.97-17.21-3.97c-3.7,0-7.22,1.74-9.12,13.93c-0.74,4.75-4.25,4.92-6.56,7.74
				c-1.7,2.08,9.94,20.53,12.36,20.58c4.19,0.1,28.52-4.03,31.01-21.11C878.95,314.13,876.96,309.64,867.36,304.67z"/>
			<path class="st13" d="M882.93,288.12c-1.81-4.36-2.23-6.08-3.3-11.01c-2.54-11.73-13.25-15.73-21.68-15.73
				c-8.43,0-16.45,1.74-20.79,13.93c-1.69,4.75-3.52,7.97-5.5,13.09c-1.98,5.11-8.86,10.79-8.86,18.82
				c0,12.04,15.74,21.79,35.15,21.79c19.41,0,35.14-9.76,35.14-21.79C893.09,299.18,886.3,296.2,882.93,288.12z"/>
			<path class="st14" d="M889.52,304.52c3.1,7.11-10.34,25.45-33.2,25.45c-19.6,0-32.19-15.34-30.17-24.1
				c1.78-7.7,15.79-11.68,31.12-11.68C872.6,294.18,885.69,295.75,889.52,304.52z"/>
			<path class="st15" d="M867.27,298.68c0,1.74-9.32,7.42-9.32,7.42s-9.33-5.68-9.33-7.42c0-1.74,4.18-3.15,9.33-3.15
				C863.1,295.53,867.27,296.94,867.27,298.68z"/>
			<path class="st16" d="M862.1,297.55c0,0.9-1.86,1.63-4.16,1.63c-2.3,0-4.16-0.73-4.16-1.63c0-0.9,1.86-1.63,4.16-1.63
				C860.24,295.92,862.1,296.65,862.1,297.55z"/>
			<path class="st15" d="M873.79,289.35c0,1.8-1.46,3.26-3.26,3.26c-1.8,0-3.26-1.46-3.26-3.26c0-1.8,1.46-3.26,3.26-3.26
				C872.33,286.09,873.79,287.55,873.79,289.35z"/>
			<path class="st15" d="M850.08,289.35c0,1.8-1.46,3.26-3.26,3.26c-1.8,0-3.26-1.46-3.26-3.26c0-1.8,1.46-3.26,3.26-3.26
				C848.62,286.09,850.08,287.55,850.08,289.35z"/>
			<path class="st8" d="M872.49,289.3c0,0.54-0.44,0.98-0.98,0.98c-0.54,0-0.98-0.44-0.98-0.98c0-0.54,0.44-0.98,0.98-0.98
				C872.05,288.31,872.49,288.75,872.49,289.3z"/>
			<path class="st8" d="M848.79,289.3c0,0.54-0.44,0.98-0.98,0.98c-0.54,0-0.98-0.44-0.98-0.98c0-0.54,0.44-0.98,0.98-0.98
				C848.35,288.31,848.79,288.75,848.79,289.3z"/>
			<path class="st13" d="M872.49,266.44c0,0,2.79-7.78,9.13-8.71c7.62-1.11,19.66,5.04,14.52,11.94
				c-5.13,6.89-17.76,8.86-17.76,8.86L872.49,266.44z"/>
			<path class="st14" d="M874.55,270.33c0,0,4.45-8.34,7.3-8.76c3.42-0.5,8.77,8.65,6.47,11.74c-2.3,3.09-11.13,2.44-11.13,2.44
				L874.55,270.33z"/>
			<path class="st13" d="M881.63,257.72c7.62-1.11,16.51,3.63,15.66,9.49c-0.78,5.41-8.11,15.08-8.11,15.08
				S875.28,258.65,881.63,257.72z"/>
			<path class="st13" d="M843.69,266.44c0,0-2.79-7.78-9.13-8.71c-7.62-1.11-19.66,5.04-14.52,11.94
				c5.13,6.89,17.76,8.86,17.76,8.86L843.69,266.44z"/>
			<path class="st14" d="M841.63,270.33c0,0-4.45-8.34-7.3-8.76c-3.42-0.5-8.77,8.65-6.47,11.74c2.3,3.09,11.13,2.44,11.13,2.44
				L841.63,270.33z"/>
			<path class="st13" d="M834.55,257.72c-7.62-1.11-16.5,3.63-15.66,9.49c0.78,5.41,8.11,15.08,8.11,15.08
				S840.9,258.65,834.55,257.72z"/>
			<g>
				<path class="st17" d="M849.58,307.62c0,0.13,0.1,0.23,0.23,0.23c0.13,0,0.23-0.11,0.23-0.23c0-0.13-0.1-0.23-0.23-0.23
					C849.68,307.38,849.58,307.49,849.58,307.62z"/>
				<path class="st17" d="M850.78,308.75c0,0.13,0.1,0.23,0.23,0.23c0.13,0,0.23-0.1,0.23-0.23c0-0.13-0.1-0.23-0.23-0.23
					C850.88,308.52,850.78,308.62,850.78,308.75z"/>
				<path class="st17" d="M848.62,310.47c0,0.13,0.1,0.23,0.23,0.23s0.23-0.1,0.23-0.23c0-0.13-0.1-0.23-0.23-0.23
					S848.62,310.35,848.62,310.47z"/>
				<path class="st17" d="M849.24,309.11c0,0.11,0.09,0.19,0.19,0.19c0.11,0,0.19-0.09,0.19-0.19c0-0.11-0.09-0.19-0.19-0.19
					C849.32,308.92,849.24,309.01,849.24,309.11z"/>
				<path class="st17" d="M850.82,310.24c0,0.11,0.09,0.19,0.19,0.19c0.11,0,0.19-0.08,0.19-0.19s-0.09-0.19-0.19-0.19
					C850.9,310.05,850.82,310.14,850.82,310.24z"/>
				<path class="st17" d="M848.14,308.18c0,0.19,0.15,0.33,0.33,0.33c0.19,0,0.33-0.15,0.33-0.33c0-0.19-0.15-0.33-0.33-0.33
					C848.29,307.85,848.14,308,848.14,308.18z"/>
				<path class="st17" d="M849.71,309.9c0,0.18,0.15,0.33,0.33,0.33c0.19,0,0.33-0.15,0.33-0.33c0-0.19-0.15-0.33-0.33-0.33
					C849.86,309.57,849.71,309.72,849.71,309.9z"/>
				<path class="st17" d="M848.14,307.24c0,0.19,0.15,0.33,0.33,0.33c0.19,0,0.33-0.15,0.33-0.33c0-0.19-0.15-0.34-0.33-0.34
					C848.29,306.9,848.14,307.05,848.14,307.24z"/>
				<path class="st17" d="M846.85,308.1c0,0.14,0.11,0.26,0.26,0.26c0.14,0,0.25-0.12,0.25-0.26s-0.11-0.25-0.25-0.25
					C846.96,307.85,846.85,307.96,846.85,308.1z"/>
				<path class="st17" d="M847.36,309.51c0,0.22,0.18,0.39,0.39,0.39s0.39-0.18,0.39-0.39s-0.18-0.39-0.39-0.39
					S847.36,309.29,847.36,309.51z"/>
			</g>
			<g>
				<circle class="st17" cx="866.5" cy="307.62" r="0.23"/>
				<path class="st17" d="M865.54,308.75c0,0.13-0.1,0.23-0.23,0.23c-0.13,0-0.23-0.1-0.23-0.23c0-0.13,0.1-0.23,0.23-0.23
					C865.44,308.52,865.54,308.62,865.54,308.75z"/>
				<path class="st17" d="M867.69,310.47c0,0.13-0.1,0.23-0.23,0.23c-0.13,0-0.23-0.1-0.23-0.23c0-0.13,0.1-0.23,0.23-0.23
					C867.59,310.24,867.69,310.35,867.69,310.47z"/>
				<path class="st17" d="M867.08,309.11c0,0.11-0.08,0.19-0.19,0.19c-0.11,0-0.19-0.09-0.19-0.19c0-0.11,0.09-0.19,0.19-0.19
					C866.99,308.92,867.08,309.01,867.08,309.11z"/>
				<path class="st17" d="M865.5,310.24c0,0.11-0.08,0.19-0.19,0.19c-0.11,0-0.19-0.08-0.19-0.19s0.09-0.19,0.19-0.19
					C865.42,310.05,865.5,310.14,865.5,310.24z"/>
				<path class="st17" d="M868.17,308.18c0,0.19-0.15,0.33-0.33,0.33c-0.18,0-0.33-0.15-0.33-0.33c0-0.19,0.15-0.33,0.33-0.33
					C868.02,307.85,868.17,308,868.17,308.18z"/>
				<path class="st17" d="M866.61,309.9c0,0.18-0.15,0.33-0.33,0.33c-0.19,0-0.33-0.15-0.33-0.33c0-0.19,0.15-0.33,0.33-0.33
					C866.46,309.57,866.61,309.72,866.61,309.9z"/>
				<path class="st17" d="M868.17,307.24c0,0.19-0.15,0.33-0.33,0.33c-0.18,0-0.33-0.15-0.33-0.33c0-0.19,0.15-0.34,0.33-0.34
					C868.02,306.9,868.17,307.05,868.17,307.24z"/>
				<path class="st17" d="M869.47,308.1c0,0.14-0.11,0.26-0.26,0.26c-0.14,0-0.25-0.12-0.25-0.26s0.11-0.25,0.25-0.25
					C869.35,307.85,869.47,307.96,869.47,308.1z"/>
				<path class="st17" d="M868.96,309.51c0,0.22-0.18,0.39-0.39,0.39c-0.22,0-0.39-0.18-0.39-0.39s0.18-0.39,0.39-0.39
					C868.78,309.11,868.96,309.29,868.96,309.51z"/>
			</g>
			<g>
				<path class="st17" d="M858.32,315.33c0,0-0.13-0.58-0.22-1.44c-0.1-0.86-0.16-2.02-0.16-3.17c0-1.15,0.06-2.31,0.16-3.17
					c0.09-0.87,0.22-1.44,0.22-1.44s0.13,0.58,0.22,1.44c0.1,0.87,0.16,2.02,0.16,3.17c0,1.16-0.07,2.31-0.16,3.17
					C858.44,314.75,858.32,315.33,858.32,315.33z"/>
			</g>
			<g>
				<g>
					<path class="st17" d="M850.78,315.65c0,0,0.01,0.03,0.03,0.1c0.02,0.06,0.03,0.16,0.09,0.26c0.04,0.11,0.11,0.22,0.2,0.33
						c0.1,0.1,0.22,0.2,0.38,0.26c0.64,0.26,1.7,0.07,2.71-0.17c1.02-0.24,2.04-0.56,2.82-0.77c0.78-0.22,1.32-0.34,1.32-0.34
						s-0.43,0.35-1.15,0.74c-0.72,0.39-1.73,0.84-2.8,1.1c-0.54,0.12-1.1,0.21-1.64,0.2c-0.53-0.01-1.07-0.11-1.46-0.39
						c-0.2-0.13-0.33-0.32-0.41-0.48c-0.07-0.17-0.1-0.33-0.1-0.46c-0.02-0.13,0.02-0.22,0.02-0.28
						C850.77,315.69,850.78,315.65,850.78,315.65z"/>
				</g>
			</g>
			<g>
				<g>
					<path class="st17" d="M865.87,315.65c0,0,0,0.03,0.01,0.1c0,0.06,0.04,0.15,0.02,0.28c0,0.13-0.03,0.29-0.1,0.46
						c-0.09,0.16-0.21,0.35-0.41,0.48c-0.39,0.29-0.93,0.38-1.46,0.39c-0.54,0.01-1.1-0.08-1.64-0.2c-1.08-0.26-2.09-0.7-2.8-1.1
						c-0.72-0.39-1.15-0.74-1.15-0.74s0.54,0.12,1.32,0.34c0.78,0.21,1.8,0.52,2.82,0.77c1,0.24,2.06,0.43,2.71,0.17
						c0.16-0.06,0.28-0.16,0.38-0.26c0.09-0.11,0.16-0.22,0.2-0.33c0.05-0.1,0.06-0.2,0.09-0.26
						C865.86,315.69,865.87,315.65,865.87,315.65z"/>
				</g>
			</g>
			<path class="st11" d="M846.82,390.13c-1.8,2.7-13.41,4.49-15.58,0c-2.17-4.49,6.32-5.14,5.66-7.69
				c-2.42-9.39-8.11-32.37-8.11-41.39c0-11.46,22.59,7.73,22.44,19.42c-0.1,8.27-2.43,17.89-3.78,22.81
				C846.91,385.3,848.62,387.43,846.82,390.13z"/>
			<path class="st11" d="M866.98,390.13c1.8,2.7,13.42,4.49,15.58,0c2.17-4.49-6.32-5.14-5.66-7.69c2.42-9.39,8.11-32.37,8.11-41.39
				c0-11.46-22.59,7.73-22.44,19.42c0.1,8.27,2.43,17.89,3.78,22.81C866.9,385.3,865.18,387.43,866.98,390.13z"/>
			<path class="st11" d="M908.09,321.45c0,0,4.02,0.74,11.35-7.46c6.6-7.37,0.63-23.95,0.63-23.95s10.25,13.38,3.25,27.01
				c-3.41,6.65-11.55,12.07-11.55,12.07L908.09,321.45z"/>
		</g>
	</g>
	<g>
		<ellipse class="st9" cx="738.92" cy="394.23" rx="56.83" ry="11.38"/>
		<g>
			<path class="st18" d="M795.06,403.91c0,0-6.25,3.76-18.5,5.09c0,0-4.55-0.09-2.4-3.2c0,0,31.99-7.98,15.48-17.84l2.9-10.92
				c0,0,11.47,3.98,11.21,13.84C803.76,390.88,804.83,397.83,795.06,403.91z"/>
			<path class="st19" d="M694.96,356.64c0,0-11.07-22.36,4.68-40.17c0,0,18.4-15.06,35.16-4.82c0,0-15.43,19.3,11.56,28.89
				c0,0,36.82,11.18,27.06,40.61c0,0-2.35,18.76-26.57,16.48l-14.78,0.17c0,0-1.47-3.5,3.26-4.3l9.72-1.83
				C745.05,391.67,712.28,379.27,694.96,356.64z"/>
			<path class="st18" d="M735.65,311.2c0,0,0.21,16.18,27.2,25.77c0,0,34.09,12.65,29.29,44.07c0,0-0.83,17.31-30.08,16.59
				l-19.71,0.17c0,0-1.47-3.5,3.26-4.3l19.78-2.8c0,0-15.82-0.55-16.29-11.75c0,0-8.03-1.78-21.77-12.56c0,0-42.14-29.85-26.4-47.66
				C700.93,318.74,718.88,300.96,735.65,311.2z"/>
			<path class="st9" d="M762.85,336.97c-22.77-8.09-26.48-20.88-27.09-24.67c0.38,7.32,4.09,14.54,8.63,20.1
				c7.35,9.01,18.56,10.45,27.76,16.53c6.53,4.32,11.31,10.62,13.82,18.02c1.73,5.11,2.22,11.03,0.86,16.27
				c-1.6,6.15-6.07,8.48-11.76,10.53c-4.32,1.57-8.96,1.93-13.52,2.1c-4.53,0.17-9.26,0.67-13.77,0.19
				c-1.08-0.12-2.88-0.81-2.38-2.31c0.02-0.07,0.05-0.14,0.08-0.2c-4.58,0.84-3.14,4.28-3.14,4.28l19.71-0.17
				c29.45,0.57,30.08-16.59,30.08-16.59C796.94,349.62,762.85,336.97,762.85,336.97z"/>
			<path class="st18" d="M720.73,301.15c0,0-2.18-1.17-5.92-1.68l0.01-0.18c-0.9-0.06-1.76-0.06-2.57-0.03
				c-0.81-0.03-1.66-0.02-2.57,0.03l0.01,0.18c-3.74,0.51-5.92,1.68-5.92,1.68s-25.61,12.23-8.82,55.46c0,0,4.25,32.12,3.05,33.32
				c0,0-9.32,7.9,4.17,7.79c0,0,6.53,0.93,5.52-5.63c0,0,0,0-0.11-5.52c0,0-2.54-34.89,4.66-34.73c7.2-0.15,4.66,34.73,4.66,34.73
				c-0.19,2.99-1.16,5.73-1.16,5.73c-1.9,6.55,6.58,5.42,6.58,5.42c10.8-0.87,3.4-7.01,3.4-7.01c-1.01-12.43,3.82-34.1,3.82-34.1
				C758.32,319.65,720.73,301.15,720.73,301.15z"/>
			<path class="st9" d="M701.77,332.47c5.34,1.75,12.7,1.75,18.05-0.03c7.98-2.65,13.2-10.04,16-17.61
				c-5.81-9.12-15.08-13.68-15.08-13.68s-2.18-1.17-5.92-1.68l0.01-0.18c-0.9-0.06-1.76-0.06-2.57-0.03
				c-0.81-0.03-1.66-0.02-2.57,0.03l0.01,0.18c-3.74,0.51-5.92,1.68-5.92,1.68s-11.5,5.5-14.03,22.13
				C692.52,327.05,696.94,330.89,701.77,332.47z"/>
			<g>
				<path class="st20" d="M689.89,279.89l-2.86,5.33c0,0-3.33-1.53-5.83,0.57c-5.32,4.47-3.67,20.18-3.67,20.18
					c2.56,13.22-9.88,11.66-9.88,11.66c-8.5-1.41-6.61-12.04-6.61-12.04c1.41-14.48,5.81-24.06,17.64-27.23
					C678.68,278.35,684.72,276.1,689.89,279.89z"/>
				<path class="st20" d="M730.2,279.89c0,0,2.86,5.33,2.86,5.33s3.33-1.53,5.83,0.57c5.32,4.47,3.67,20.18,3.67,20.18
					c-2.56,13.22,9.88,11.66,9.88,11.66c8.5-1.41,6.61-12.04,6.61-12.04c-1.41-14.48-5.81-24.06-17.64-27.23
					C741.4,278.35,735.36,276.1,730.2,279.89z"/>
				<path class="st21" d="M736.99,305.09c0,14.96-11.47,24.71-26.43,24.71l0,0c-14.96,0-27.73-9.75-27.73-24.71v-7.09
					c0-14.96,12.12-27.08,27.08-27.08l0,0c14.96,0,27.08,12.12,27.08,27.08V305.09z"/>
				<path class="st22" d="M686.79,308.96c3.65-2.86,8.15-3.85,12.36-5.59c2.07-0.86,4.2-1.95,5.64-3.71
					c1.85-2.25,2.34-5.17,2.27-8.01c-0.09-3.76-0.68-8.32-2.75-11.57c-1.58-2.48-3.88-4.38-5.66-6.7
					c-9.34,4.27-15.83,13.69-15.83,24.63v7.09c0,2.58,0.39,5,1.09,7.24C684.58,311.1,685.52,309.96,686.79,308.96z"/>
				<path class="st22" d="M712.69,292.09c0.18,2.93,0.6,6.53,2.66,8.83c1.42,1.58,3.26,2.51,5.3,3.05c3.84,1.03,8.2,1.1,11.66,3.25
					c1.69,1.05,2.95,2.49,3.95,4.13c0.47-1.96,0.73-4.05,0.73-6.25v-7.09c0-11.55-7.24-21.41-17.43-25.3
					C715.51,278.39,712.26,284.93,712.69,292.09z"/>
				<path class="st23" d="M684.49,306.48c4.59-4.35,11.81-0.64,16.41-5.01c3.83-3.63,2.44-10.38,1.42-14.97
					c-0.84-3.77-2.07-9.52-5.33-12.31c-8.44,4.59-14.16,13.53-14.16,23.81v7.09c0,1.06,0.07,2.1,0.2,3.11
					C683.46,307.59,683.94,307.01,684.49,306.48z"/>
				<path class="st23" d="M715.07,290.23c0.01,6.18,3.26,12.17,9.65,13.59c3.84,0.86,8.65,0.23,11.82,3.04
					c0.13,0.11,0.24,0.23,0.36,0.35c0.05-0.69,0.09-1.4,0.09-2.12v-7.09c0-10.7-6.21-19.95-15.21-24.34
					C717.77,278.05,715.06,284.28,715.07,290.23z"/>
				<path class="st23" d="M692.77,318.14L692.77,318.14c1.17,8.31,2.65,10.3,9.57,11.67h15.13c5.37,0,9.57-5.22,9.57-11.67l0,0
					c0,0-0.37-14.19-17.15-14.52C709.89,303.62,694.69,302.56,692.77,318.14z"/>
				<g>
					<g>
						<path class="st7" d="M714.93,310.41c0,0-0.9-1.53-5.02-1.43c-4.12-0.1-5.02,1.43-5.02,1.43c-0.82,0.86-1.1,2.37-0.58,3.48
							c0,0,1.6,2.51,4.1,3.52c0,0,0.87,0.38,1.5,0.4v0c0,0,0.01,0,0.01,0c0.01,0,0.01,0,0.01,0v0c0.62-0.02,1.5-0.4,1.5-0.4
							c2.5-1.01,4.1-3.52,4.1-3.52C716.03,312.79,715.75,311.27,714.93,310.41z"/>
						<path class="st24" d="M713.44,311.69c0.02-0.15,0.02-0.3,0.01-0.45c-0.11-1.11-1.43-1.88-2.5-1.63
							c-1.22,0.29-2.5,1.87-2.07,3.17c0.36,1.09,1.39,1.59,2.47,1.17C712.28,313.59,713.3,312.74,713.44,311.69z"/>
						<path class="st24" d="M712.9,311.42c-0.08-0.78-1.01-1.33-1.77-1.15c0,0-0.01,0-0.01,0c0.37,0.17,0.69,0.45,0.89,0.83
							c0.36,0.68,0.09,1.4-0.51,1.82c-0.36,0.25-0.81,0.42-1.23,0.35c0.32,0.19,0.73,0.23,1.14,0.06c0.67-0.26,1.38-0.86,1.48-1.6
							C712.91,311.63,712.92,311.52,712.9,311.42z"/>
						<path class="st1" d="M714.93,310.41c0,0-0.15-0.25-0.59-0.54c0.41,0.95,0.51,1.97-0.1,3c-0.7,1.21-1.98,2.29-3.43,2.38
							c-1.56,0.1-2.82-0.94-3.11-2.47c-0.28-1.5,0.73-2.97,1.94-3.81c-3.88-0.03-4.75,1.43-4.75,1.43c-0.82,0.86-1.1,2.37-0.58,3.48
							c0,0,1.6,2.51,4.1,3.52c0,0,0.87,0.38,1.5,0.4v0c0,0,0.01,0,0.01,0c0.01,0,0.01,0,0.01,0v0c0.62-0.02,1.5-0.4,1.5-0.4
							c2.5-1.01,4.1-3.52,4.1-3.52C716.03,312.79,715.75,311.27,714.93,310.41z"/>
						<path class="st1" d="M715.16,310.7c0.11,0.8,0.03,1.59-0.36,2.35c-0.9,1.73-2.57,2.78-4.53,2.69
							c-1.71-0.09-3.15-1.54-3.21-3.26c-0.05-1.48,0.62-2.73,1.77-3.47c-3.19,0.17-3.93,1.41-3.93,1.41
							c-0.82,0.86-1.1,2.37-0.58,3.48c0,0,1.6,2.51,4.1,3.52c0,0,0.87,0.38,1.5,0.4v0c0,0,0.01,0,0.01,0c0.01,0,0.01,0,0.01,0v0
							c0.62-0.02,1.5-0.4,1.5-0.4c2.5-1.01,4.1-3.52,4.1-3.52C715.98,312.9,715.79,311.58,715.16,310.7z"/>
					</g>
					<line class="st25" x1="710.01" y1="322.49" x2="710.01" y2="316.7"/>
					<g>
						<path class="st7" d="M703.83,319.67c0,0,0,0.24,0.16,0.6c0.09,0.17,0.21,0.37,0.41,0.55c0.18,0.19,0.44,0.34,0.73,0.49
							c1.17,0.58,2.99,0.73,4.79,0.73c0.48,0.02,0.9,0.01,1.34-0.01c0.44-0.03,0.87-0.07,1.28-0.14c0.41-0.07,0.8-0.16,1.16-0.26
							c0.36-0.12,0.69-0.25,0.98-0.4c0.28-0.17,0.54-0.32,0.74-0.5c0.23-0.16,0.34-0.37,0.48-0.51c0.21-0.34,0.33-0.54,0.33-0.54
							s-0.01,0.06-0.04,0.16c-0.03,0.1-0.06,0.27-0.14,0.46c-0.11,0.17-0.19,0.43-0.39,0.65c-0.17,0.25-0.42,0.48-0.71,0.71
							c-0.15,0.1-0.31,0.21-0.48,0.32c-0.18,0.09-0.36,0.18-0.55,0.27c-0.38,0.16-0.8,0.31-1.24,0.41c-0.44,0.1-0.9,0.19-1.36,0.23
							c-0.46,0.04-0.96,0.06-1.41,0.05c-0.47-0.02-0.94-0.02-1.41-0.07c-0.47-0.04-0.92-0.11-1.36-0.2
							c-0.44-0.08-0.86-0.22-1.25-0.37c-0.39-0.15-0.74-0.34-1.04-0.55c-0.3-0.21-0.55-0.45-0.71-0.71c-0.18-0.25-0.27-0.5-0.32-0.7
							C703.74,319.9,703.83,319.67,703.83,319.67z"/>
					</g>
				</g>
				<g>
					<g>
						<path class="st26" d="M700.55,297.81c0,2.37-1.92,4.29-4.29,4.29c-2.37,0-4.29-1.92-4.29-4.29c0-2.37,1.92-4.29,4.29-4.29
							C698.63,293.52,700.55,295.45,700.55,297.81z"/>
						<path class="st27" d="M700,297.81c0,2.07-1.67,3.74-3.74,3.74c-2.07,0-3.74-1.67-3.74-3.74c0-2.06,1.68-3.74,3.74-3.74
							C698.32,294.07,700,295.75,700,297.81z"/>
						<path class="st28" d="M698.57,297.81c0,1.28-1.04,2.32-2.32,2.32c-1.28,0-2.32-1.04-2.32-2.32c0-1.28,1.04-2.31,2.32-2.31
							C697.54,295.5,698.57,296.54,698.57,297.81z"/>
						<g>
							<path class="st8" d="M695.1,296.32c0,0.64-0.52,1.16-1.16,1.16c-0.64,0-1.16-0.52-1.16-1.16c0-0.64,0.52-1.16,1.16-1.16
								C694.58,295.16,695.1,295.68,695.1,296.32z"/>
							<path class="st8" d="M695.99,297.68c0,0.32-0.26,0.57-0.58,0.57c-0.32,0-0.58-0.26-0.58-0.57c0-0.31,0.26-0.57,0.58-0.57
								C695.73,297.11,695.99,297.37,695.99,297.68z"/>
						</g>
					</g>
					<g>
						<path class="st26" d="M719.27,297.81c0,2.37,1.92,4.29,4.29,4.29c2.37,0,4.29-1.92,4.29-4.29c0-2.37-1.92-4.29-4.29-4.29
							C721.19,293.52,719.27,295.45,719.27,297.81z"/>
						<path class="st27" d="M719.81,297.81c0,2.07,1.68,3.74,3.74,3.74c2.07,0,3.74-1.67,3.74-3.74c0-2.06-1.67-3.74-3.74-3.74
							C721.49,294.07,719.81,295.75,719.81,297.81z"/>
						<path class="st28" d="M721.24,297.81c0,1.28,1.04,2.32,2.32,2.32c1.28,0,2.32-1.04,2.32-2.32c0-1.28-1.04-2.31-2.32-2.31
							C722.28,295.5,721.24,296.54,721.24,297.81z"/>
						<g>
							<path class="st8" d="M724.71,296.32c0,0.64,0.52,1.16,1.16,1.16c0.64,0,1.16-0.52,1.16-1.16c0-0.64-0.52-1.16-1.16-1.16
								C725.23,295.16,724.71,295.68,724.71,296.32z"/>
							<path class="st8" d="M723.82,297.68c0,0.32,0.26,0.57,0.57,0.57c0.32,0,0.57-0.26,0.57-0.57c0-0.31-0.26-0.57-0.57-0.57
								C724.08,297.11,723.82,297.37,723.82,297.68z"/>
						</g>
					</g>
				</g>
				<g>
					<g>
						<path class="st29" d="M695.1,311.02c0,0,0.11-0.54,0.58-1.39c0.46-0.84,1.29-1.98,2.61-3.03c1.3-1.06,3.07-1.99,5.08-2.57
							c1.01-0.29,2.06-0.53,3.15-0.66c1.08-0.13,2.19-0.2,3.29-0.22c1.11-0.02,2.23,0.09,3.31,0.25c1.08,0.15,2.13,0.42,3.13,0.73
							c1.99,0.62,3.75,1.56,5.06,2.61c0.66,0.52,1.21,1.06,1.65,1.56c0.45,0.51,0.78,0.99,1.04,1.39c0.25,0.41,0.43,0.74,0.53,0.97
							c0.11,0.23,0.17,0.35,0.17,0.35s-0.08-0.11-0.24-0.3c-0.15-0.2-0.4-0.48-0.71-0.83c-0.63-0.69-1.62-1.58-2.96-2.39
							c-1.34-0.81-3.02-1.53-4.92-2.01c-0.94-0.25-1.94-0.42-2.96-0.56c-1.02-0.13-2.05-0.21-3.09-0.19
							c-2.1-0.01-4.19,0.2-6.09,0.64c-0.94,0.23-1.85,0.5-2.67,0.83c-0.82,0.34-1.58,0.72-2.24,1.13c-1.33,0.82-2.29,1.75-2.88,2.47
							C695.34,310.53,695.1,311.02,695.1,311.02z"/>
					</g>
				</g>
			</g>
			<g>
				<g>
					<path class="st7" d="M764.14,390.88c0,0-0.62-0.01-1.69-0.16c-1.07-0.16-2.61-0.43-4.38-1.06c-1.75-0.63-3.79-1.57-5.56-3.17
						c-0.88-0.8-1.69-1.75-2.32-2.84c-0.63-1.09-1.09-2.3-1.33-3.56c-0.21-1.26-0.31-2.51-0.23-3.76c0.07-1.24,0.27-2.45,0.58-3.59
						c0.61-2.29,1.76-4.24,2.95-5.68c0.59-0.74,1.22-1.32,1.8-1.82c0.58-0.49,1.12-0.88,1.57-1.18c0.45-0.3,0.82-0.51,1.08-0.65
						c0.25-0.14,0.39-0.22,0.39-0.22s-0.13,0.09-0.37,0.25c-0.24,0.16-0.59,0.41-1.01,0.74c-0.85,0.65-2.01,1.68-3.11,3.14
						c-1.11,1.45-2.08,3.38-2.63,5.58c-0.28,1.1-0.46,2.26-0.51,3.45c-0.07,1.18,0.06,2.4,0.27,3.58c0.21,1.18,0.61,2.31,1.19,3.34
						c0.58,1.02,1.32,1.93,2.14,2.7c1.65,1.54,3.55,2.58,5.25,3.26c1.7,0.68,3.19,1.1,4.24,1.33
						C763.53,390.8,764.14,390.88,764.14,390.88z"/>
				</g>
			</g>
		</g>
	</g>
	<g>
		<path class="st9" d="M894.88,211.64c0,7.59-18.26,13.75-40.78,13.75c-22.52,0-40.78-6.15-40.78-13.75s18.26-13.75,40.78-13.75
			C876.62,197.89,894.88,204.04,894.88,211.64z"/>
		<g>
			<g>
				<path class="st30" d="M828.27,187.43c-8.11,2.53-12.67,10.36-11.34,18.69c1.41,8.85,9.34,14.16,17.47,16.31
					c8.63,2.29,18.24,1.1,26.02-3.23c4.26-2.37,7.14-6.08,8.81-10.6c1.97-5.34-0.92-10.66-3.02-15.42c-0.86-1.95-3.66-2.39-5.34-1.4
					c-1.99,1.16-2.26,3.4-1.4,5.34c1.34,3.02,3.17,6.01,2.24,9.4c-0.89,3.25-3.86,5.26-6.67,6.71c-5.34,2.76-12.04,3.08-17.82,1.85
					c-5.13-1.09-10.78-3.87-12.38-9.23c-1.37-4.56,0.93-9.46,5.51-10.89C835.14,193.47,833.09,185.93,828.27,187.43L828.27,187.43z"
					/>
			</g>
			<g>
				<path class="st8" d="M820.06,194.05c0.92-0.13,1.87-0.2,2.61-0.74c0.51-0.38,1.18,0.14,1.2,0.69c0.03,1.21,0.14,2.41-0.03,3.58
					c0.91-0.18,1.77-0.15,2.54,0.09c0.99-1.23,2.34-2.19,3.98-2.71c4.79-1.49,2.74-9.03-2.07-7.53c-3.32,1.03-6.03,2.95-8,5.43
					C820.2,193.26,820.13,193.65,820.06,194.05z"/>
			</g>
			<path class="st31" d="M838.96,133.29c0,0,3.7,7.1,1.09,20.63c0,0-15.09,25.61-2.71,37.9c0,0,1.76,3.33,2.49,8.33
				c0,0,0.88,7.29,10.91,7.7c0,0,27.31,5.83,33.76-11.45c0,0,11.45-38.83-7.29-54.76c0,0-4.17-5-17.02-14.05
				c0,0-3.7-8.52-13.05-5.47C847.13,122.12,835.28,125.78,838.96,133.29z"/>
			<path class="st6" d="M877.21,141.64c0,0-1.11-1.34-3.95-3.87c2,2.87,3.7,5.93,5.12,9.18c4.1,9.35,6.12,19.48,5.77,29.73
				c-0.25,7.51-0.71,15.72-5.77,21.21c-5.11,5.54-10.88,8.39-18.22,8.95c-6.84,0.52-14.14-0.58-19.11-5.74
				c-0.47-0.49-0.9-1-1.32-1.52c0.03,0.19,0.06,0.38,0.09,0.58c0,0,0.88,7.29,10.91,7.7c0,0,27.31,5.83,33.76-11.45
				C884.49,196.41,895.95,157.58,877.21,141.64z"/>
			<path class="st9" d="M840.04,153.93c0,0-0.48,0.82-1.21,2.24c1.83-1.82,3.4-3.94,4.67-6.32c2.53-4.75,3.91-10.01,3.85-15.4
				c-0.03-2.7-0.21-5.23-0.82-7.85c-0.3-1.28-0.7-2.67-0.67-4.02c-2.95,1.21-9.82,4.74-6.9,10.71
				C838.96,133.29,842.65,140.39,840.04,153.93z"/>
			<g>
				<path class="st32" d="M861.18,106.66c-8.7-12.18-23.71-12.03-32.31,0c0,0-12.9,14.37,5.17,24.36c0,0,7,3.54,10.99,4.37
					c3.98-0.83,10.99-4.37,10.99-4.37C874.07,121.02,861.18,106.66,861.18,106.66z"/>
				<rect x="843.15" y="129.62" class="st33" width="3.98" height="2.88"/>
				<path class="st34" d="M854.1,131.96c-2.37,1.11-6.38,2.88-9.05,3.44c-2.67-0.55-6.68-2.33-9.05-3.44
					C836,131.96,845.05,131.64,854.1,131.96z"/>
				<g>
					<path class="st8" d="M845.02,129c0,2.37-2.23,4.3-4.98,4.3c-2.75,0-4.98-1.93-4.98-4.3c0-2.37,2.23-4.3,4.98-4.3
						C842.79,124.7,845.02,126.62,845.02,129z"/>
					<path class="st8" d="M854.99,129c0,2.37-2.23,4.3-4.98,4.3c-2.75,0-4.98-1.93-4.98-4.3c0-2.37,2.23-4.3,4.98-4.3
						C852.77,124.7,854.99,126.63,854.99,129z"/>
					<path class="st35" d="M847.05,125.48h-2.01h-2.01c0,0-1.38,0.4-0.84,1.51l2.15,1.61c0,0,0.3,0.3,0.7,0.4
						c0.4-0.1,0.7-0.4,0.7-0.4l2.15-1.61C848.42,125.88,847.05,125.48,847.05,125.48z"/>
				</g>
				<g>
					<g>
						<path class="st8" d="M838.6,103.71c0.06,1.34-0.11-7.64-9.98-10.44c0,0-2.21-0.95-3.03,1.46c0,0-3.99,7.65,1.97,14.07
							C827.56,108.8,834.22,109.96,838.6,103.71z"/>
						<path class="st32" d="M838.6,103.71c0.06,1.34-0.11-7.64-9.98-10.44c0,0-2.21-0.95-3.03,1.46c0,0-3.99,7.65,1.97,14.07
							C827.56,108.8,834.22,109.96,838.6,103.71z"/>
						<path class="st36" d="M837.34,104.16c0.04,1.05-0.08-6-7.84-8.2c0,0-1.74-0.74-2.38,1.15c0,0-3.14,6.01,1.55,11.05
							C828.67,108.15,833.9,109.06,837.34,104.16z"/>
						<path class="st9" d="M836.68,103.83c-0.83,1.73-2.66,3.05-4.58,3.16c-2.17,0.13-3.38-1.66-3.84-3.55
							c-0.33-1.34-0.72-3.12-0.1-4.45c0.67-1.45,1.78-1.87,3.2-2.37c-0.56-0.25-1.17-0.48-1.84-0.67c0,0-1.74-0.74-2.38,1.15
							c0,0-3.14,6.01,1.55,11.05c0,0,5.22,0.91,8.66-3.98c-0.03-0.19-0.11-0.67-0.32-1.31
							C836.93,103.19,836.82,103.52,836.68,103.83z"/>
					</g>
				</g>
				<g>
					<g>
						<path class="st8" d="M851.49,103.71c-0.06,1.34,0.11-7.64,9.99-10.44c0,0,2.21-0.95,3.02,1.46c0,0,4,7.65-1.97,14.07
							C862.53,108.8,855.87,109.96,851.49,103.71z"/>
						<path class="st32" d="M851.49,103.71c-0.06,1.34,0.11-7.64,9.99-10.44c0,0,2.21-0.95,3.02,1.46c0,0,4,7.65-1.97,14.07
							C862.53,108.8,855.87,109.96,851.49,103.71z"/>
						<path class="st36" d="M852.75,104.16c-0.05,1.05,0.08-6,7.84-8.2c0,0,1.74-0.74,2.38,1.15c0,0,3.14,6.01-1.55,11.05
							C861.42,108.15,856.19,109.06,852.75,104.16z"/>
						<path class="st9" d="M853.42,103.83c0.83,1.73,2.66,3.05,4.58,3.16c2.17,0.13,3.38-1.66,3.85-3.55
							c0.33-1.34,0.72-3.12,0.1-4.45c-0.67-1.45-1.78-1.87-3.2-2.37c0.56-0.25,1.17-0.48,1.84-0.67c0,0,1.74-0.74,2.38,1.15
							c0,0,3.14,6.01-1.55,11.05c0,0-5.22,0.91-8.66-3.98c0.03-0.19,0.11-0.67,0.32-1.31C853.16,103.19,853.27,103.52,853.42,103.83
							z"/>
					</g>
				</g>
				<g>
					<path class="st37" d="M824.52,116.07c0,0,2.47-2.1,6.29-0.61c0,0-3.83-1.08-6.4,2.43C824.41,117.9,824.29,117.35,824.52,116.07
						z"/>
					<path class="st37" d="M824.59,119.86c0,0,0.2,1.08,0.44,1.71c0,0,2.25-2,5.55-2.27C830.58,119.31,828.44,117.6,824.59,119.86z"
						/>
					<path class="st37" d="M825.85,123.47c0,0,0.73,1.24,1,1.59c0,0,3.64-0.49,4.6-3.48C831.45,121.57,827.92,124.7,825.85,123.47z"
						/>
				</g>
				<g>
					<path class="st37" d="M865.58,116.07c0,0-2.47-2.1-6.29-0.61c0,0,3.82-1.08,6.4,2.43C865.69,117.9,865.8,117.35,865.58,116.07z
						"/>
					<path class="st37" d="M865.5,119.86c0,0-0.2,1.08-0.44,1.71c0,0-2.24-2-5.55-2.27C859.52,119.31,861.65,117.6,865.5,119.86z"/>
					<path class="st37" d="M864.24,123.47c0,0-0.73,1.24-1,1.59c0,0-3.64-0.49-4.6-3.48C858.65,121.57,862.17,124.7,864.24,123.47z"
						/>
				</g>
				<g>
					<g>
						<path class="st8" d="M829.86,117.25c0.2-3.02,4.08-4.92,6.01-4.87c1.93-0.05,5.8,1.85,6.01,4.87
							c-0.2,3.02-4.07,4.92-6.01,4.87C833.93,122.16,830.06,120.27,829.86,117.25z"/>
						<g>
							<path class="st26" d="M839.82,117.25c0,2.19-1.77,3.96-3.96,3.96c-2.19,0-3.96-1.77-3.96-3.96c0-2.19,1.77-3.96,3.96-3.96
								C838.05,113.29,839.82,115.06,839.82,117.25z"/>
							<path class="st3" d="M839.32,117.25c0,1.91-1.54,3.45-3.45,3.45c-1.91,0-3.45-1.54-3.45-3.45c0-1.9,1.54-3.45,3.45-3.45
								C837.77,113.8,839.32,115.34,839.32,117.25z"/>
							<path class="st28" d="M838,117.25c0,1.18-0.96,2.14-2.14,2.14c-1.18,0-2.14-0.96-2.14-2.14s0.96-2.14,2.14-2.14
								C837.05,115.11,838,116.06,838,117.25z"/>
							<g>
								<path class="st8" d="M834.8,115.87c0,0.59-0.48,1.07-1.07,1.07c-0.59,0-1.07-0.48-1.07-1.07c0-0.59,0.48-1.07,1.07-1.07
									C834.32,114.8,834.8,115.28,834.8,115.87z"/>
								<path class="st8" d="M835.62,117.12c0,0.29-0.24,0.53-0.53,0.53c-0.29,0-0.53-0.24-0.53-0.53c0-0.29,0.24-0.53,0.53-0.53
									C835.38,116.59,835.62,116.83,835.62,117.12z"/>
							</g>
						</g>
					</g>
					<g>
						<path class="st8" d="M860.18,117.25c-0.2-3.02-4.07-4.92-6.01-4.87c-1.93-0.05-5.81,1.85-6,4.87c0.2,3.02,4.07,4.92,6,4.87
							C856.11,122.16,859.98,120.27,860.18,117.25z"/>
						<g>
							<path class="st26" d="M850.22,117.25c0,2.19,1.77,3.96,3.96,3.96c2.19,0,3.96-1.77,3.96-3.96c0-2.19-1.77-3.96-3.96-3.96
								C851.99,113.29,850.22,115.06,850.22,117.25z"/>
							<path class="st3" d="M850.73,117.25c0,1.91,1.54,3.45,3.45,3.45c1.91,0,3.45-1.54,3.45-3.45c0-1.9-1.54-3.45-3.45-3.45
								C852.27,113.8,850.73,115.34,850.73,117.25z"/>
							<path class="st28" d="M852.04,117.25c0,1.18,0.96,2.14,2.14,2.14c1.18,0,2.14-0.96,2.14-2.14s-0.96-2.14-2.14-2.14
								C853,115.11,852.04,116.06,852.04,117.25z"/>
							<g>
								<path class="st8" d="M855.25,115.87c0,0.59,0.48,1.07,1.07,1.07c0.59,0,1.07-0.48,1.07-1.07c0-0.59-0.48-1.07-1.07-1.07
									C855.73,114.8,855.25,115.28,855.25,115.87z"/>
								<path class="st8" d="M854.42,117.12c0,0.29,0.24,0.53,0.53,0.53c0.29,0,0.53-0.24,0.53-0.53c0-0.29-0.24-0.53-0.53-0.53
									C854.66,116.59,854.42,116.83,854.42,117.12z"/>
							</g>
						</g>
					</g>
				</g>
			</g>
		</g>
	</g>
</g>
</svg>
